%TF.GenerationSoftware,KiCad,Pcbnew,7.0.10*%
%TF.CreationDate,2024-05-14T13:40:59-04:00*%
%TF.ProjectId,Power PCB,506f7765-7220-4504-9342-2e6b69636164,rev?*%
%TF.SameCoordinates,Original*%
%TF.FileFunction,Legend,Bot*%
%TF.FilePolarity,Positive*%
%FSLAX46Y46*%
G04 Gerber Fmt 4.6, Leading zero omitted, Abs format (unit mm)*
G04 Created by KiCad (PCBNEW 7.0.10) date 2024-05-14 13:40:59*
%MOMM*%
%LPD*%
G01*
G04 APERTURE LIST*
%ADD10C,0.150000*%
G04 APERTURE END LIST*
D10*
X141903220Y-81399819D02*
X141903220Y-80399819D01*
X141903220Y-80399819D02*
X141522268Y-80399819D01*
X141522268Y-80399819D02*
X141427030Y-80447438D01*
X141427030Y-80447438D02*
X141379411Y-80495057D01*
X141379411Y-80495057D02*
X141331792Y-80590295D01*
X141331792Y-80590295D02*
X141331792Y-80733152D01*
X141331792Y-80733152D02*
X141379411Y-80828390D01*
X141379411Y-80828390D02*
X141427030Y-80876009D01*
X141427030Y-80876009D02*
X141522268Y-80923628D01*
X141522268Y-80923628D02*
X141903220Y-80923628D01*
X140760363Y-81399819D02*
X140855601Y-81352200D01*
X140855601Y-81352200D02*
X140903220Y-81304580D01*
X140903220Y-81304580D02*
X140950839Y-81209342D01*
X140950839Y-81209342D02*
X140950839Y-80923628D01*
X140950839Y-80923628D02*
X140903220Y-80828390D01*
X140903220Y-80828390D02*
X140855601Y-80780771D01*
X140855601Y-80780771D02*
X140760363Y-80733152D01*
X140760363Y-80733152D02*
X140617506Y-80733152D01*
X140617506Y-80733152D02*
X140522268Y-80780771D01*
X140522268Y-80780771D02*
X140474649Y-80828390D01*
X140474649Y-80828390D02*
X140427030Y-80923628D01*
X140427030Y-80923628D02*
X140427030Y-81209342D01*
X140427030Y-81209342D02*
X140474649Y-81304580D01*
X140474649Y-81304580D02*
X140522268Y-81352200D01*
X140522268Y-81352200D02*
X140617506Y-81399819D01*
X140617506Y-81399819D02*
X140760363Y-81399819D01*
X140093696Y-80733152D02*
X139903220Y-81399819D01*
X139903220Y-81399819D02*
X139712744Y-80923628D01*
X139712744Y-80923628D02*
X139522268Y-81399819D01*
X139522268Y-81399819D02*
X139331792Y-80733152D01*
X138569887Y-81352200D02*
X138665125Y-81399819D01*
X138665125Y-81399819D02*
X138855601Y-81399819D01*
X138855601Y-81399819D02*
X138950839Y-81352200D01*
X138950839Y-81352200D02*
X138998458Y-81256961D01*
X138998458Y-81256961D02*
X138998458Y-80876009D01*
X138998458Y-80876009D02*
X138950839Y-80780771D01*
X138950839Y-80780771D02*
X138855601Y-80733152D01*
X138855601Y-80733152D02*
X138665125Y-80733152D01*
X138665125Y-80733152D02*
X138569887Y-80780771D01*
X138569887Y-80780771D02*
X138522268Y-80876009D01*
X138522268Y-80876009D02*
X138522268Y-80971247D01*
X138522268Y-80971247D02*
X138998458Y-81066485D01*
X138093696Y-81399819D02*
X138093696Y-80733152D01*
X138093696Y-80923628D02*
X138046077Y-80828390D01*
X138046077Y-80828390D02*
X137998458Y-80780771D01*
X137998458Y-80780771D02*
X137903220Y-80733152D01*
X137903220Y-80733152D02*
X137807982Y-80733152D01*
X136379410Y-80876009D02*
X136236553Y-80923628D01*
X136236553Y-80923628D02*
X136188934Y-80971247D01*
X136188934Y-80971247D02*
X136141315Y-81066485D01*
X136141315Y-81066485D02*
X136141315Y-81209342D01*
X136141315Y-81209342D02*
X136188934Y-81304580D01*
X136188934Y-81304580D02*
X136236553Y-81352200D01*
X136236553Y-81352200D02*
X136331791Y-81399819D01*
X136331791Y-81399819D02*
X136712743Y-81399819D01*
X136712743Y-81399819D02*
X136712743Y-80399819D01*
X136712743Y-80399819D02*
X136379410Y-80399819D01*
X136379410Y-80399819D02*
X136284172Y-80447438D01*
X136284172Y-80447438D02*
X136236553Y-80495057D01*
X136236553Y-80495057D02*
X136188934Y-80590295D01*
X136188934Y-80590295D02*
X136188934Y-80685533D01*
X136188934Y-80685533D02*
X136236553Y-80780771D01*
X136236553Y-80780771D02*
X136284172Y-80828390D01*
X136284172Y-80828390D02*
X136379410Y-80876009D01*
X136379410Y-80876009D02*
X136712743Y-80876009D01*
X135569886Y-81399819D02*
X135665124Y-81352200D01*
X135665124Y-81352200D02*
X135712743Y-81304580D01*
X135712743Y-81304580D02*
X135760362Y-81209342D01*
X135760362Y-81209342D02*
X135760362Y-80923628D01*
X135760362Y-80923628D02*
X135712743Y-80828390D01*
X135712743Y-80828390D02*
X135665124Y-80780771D01*
X135665124Y-80780771D02*
X135569886Y-80733152D01*
X135569886Y-80733152D02*
X135427029Y-80733152D01*
X135427029Y-80733152D02*
X135331791Y-80780771D01*
X135331791Y-80780771D02*
X135284172Y-80828390D01*
X135284172Y-80828390D02*
X135236553Y-80923628D01*
X135236553Y-80923628D02*
X135236553Y-81209342D01*
X135236553Y-81209342D02*
X135284172Y-81304580D01*
X135284172Y-81304580D02*
X135331791Y-81352200D01*
X135331791Y-81352200D02*
X135427029Y-81399819D01*
X135427029Y-81399819D02*
X135569886Y-81399819D01*
X134379410Y-81399819D02*
X134379410Y-80876009D01*
X134379410Y-80876009D02*
X134427029Y-80780771D01*
X134427029Y-80780771D02*
X134522267Y-80733152D01*
X134522267Y-80733152D02*
X134712743Y-80733152D01*
X134712743Y-80733152D02*
X134807981Y-80780771D01*
X134379410Y-81352200D02*
X134474648Y-81399819D01*
X134474648Y-81399819D02*
X134712743Y-81399819D01*
X134712743Y-81399819D02*
X134807981Y-81352200D01*
X134807981Y-81352200D02*
X134855600Y-81256961D01*
X134855600Y-81256961D02*
X134855600Y-81161723D01*
X134855600Y-81161723D02*
X134807981Y-81066485D01*
X134807981Y-81066485D02*
X134712743Y-81018866D01*
X134712743Y-81018866D02*
X134474648Y-81018866D01*
X134474648Y-81018866D02*
X134379410Y-80971247D01*
X133903219Y-81399819D02*
X133903219Y-80733152D01*
X133903219Y-80923628D02*
X133855600Y-80828390D01*
X133855600Y-80828390D02*
X133807981Y-80780771D01*
X133807981Y-80780771D02*
X133712743Y-80733152D01*
X133712743Y-80733152D02*
X133617505Y-80733152D01*
X132855600Y-81399819D02*
X132855600Y-80399819D01*
X132855600Y-81352200D02*
X132950838Y-81399819D01*
X132950838Y-81399819D02*
X133141314Y-81399819D01*
X133141314Y-81399819D02*
X133236552Y-81352200D01*
X133236552Y-81352200D02*
X133284171Y-81304580D01*
X133284171Y-81304580D02*
X133331790Y-81209342D01*
X133331790Y-81209342D02*
X133331790Y-80923628D01*
X133331790Y-80923628D02*
X133284171Y-80828390D01*
X133284171Y-80828390D02*
X133236552Y-80780771D01*
X133236552Y-80780771D02*
X133141314Y-80733152D01*
X133141314Y-80733152D02*
X132950838Y-80733152D01*
X132950838Y-80733152D02*
X132855600Y-80780771D01*
X131712742Y-80733152D02*
X131474647Y-81399819D01*
X131474647Y-81399819D02*
X131236552Y-80733152D01*
X130331790Y-81399819D02*
X130903218Y-81399819D01*
X130617504Y-81399819D02*
X130617504Y-80399819D01*
X130617504Y-80399819D02*
X130712742Y-80542676D01*
X130712742Y-80542676D02*
X130807980Y-80637914D01*
X130807980Y-80637914D02*
X130903218Y-80685533D01*
X129903218Y-81304580D02*
X129855599Y-81352200D01*
X129855599Y-81352200D02*
X129903218Y-81399819D01*
X129903218Y-81399819D02*
X129950837Y-81352200D01*
X129950837Y-81352200D02*
X129903218Y-81304580D01*
X129903218Y-81304580D02*
X129903218Y-81399819D01*
X129236552Y-80399819D02*
X129141314Y-80399819D01*
X129141314Y-80399819D02*
X129046076Y-80447438D01*
X129046076Y-80447438D02*
X128998457Y-80495057D01*
X128998457Y-80495057D02*
X128950838Y-80590295D01*
X128950838Y-80590295D02*
X128903219Y-80780771D01*
X128903219Y-80780771D02*
X128903219Y-81018866D01*
X128903219Y-81018866D02*
X128950838Y-81209342D01*
X128950838Y-81209342D02*
X128998457Y-81304580D01*
X128998457Y-81304580D02*
X129046076Y-81352200D01*
X129046076Y-81352200D02*
X129141314Y-81399819D01*
X129141314Y-81399819D02*
X129236552Y-81399819D01*
X129236552Y-81399819D02*
X129331790Y-81352200D01*
X129331790Y-81352200D02*
X129379409Y-81304580D01*
X129379409Y-81304580D02*
X129427028Y-81209342D01*
X129427028Y-81209342D02*
X129474647Y-81018866D01*
X129474647Y-81018866D02*
X129474647Y-80780771D01*
X129474647Y-80780771D02*
X129427028Y-80590295D01*
X129427028Y-80590295D02*
X129379409Y-80495057D01*
X129379409Y-80495057D02*
X129331790Y-80447438D01*
X129331790Y-80447438D02*
X129236552Y-80399819D01*
X141427030Y-82009819D02*
X141903220Y-82009819D01*
X141903220Y-82009819D02*
X141950839Y-82486009D01*
X141950839Y-82486009D02*
X141903220Y-82438390D01*
X141903220Y-82438390D02*
X141807982Y-82390771D01*
X141807982Y-82390771D02*
X141569887Y-82390771D01*
X141569887Y-82390771D02*
X141474649Y-82438390D01*
X141474649Y-82438390D02*
X141427030Y-82486009D01*
X141427030Y-82486009D02*
X141379411Y-82581247D01*
X141379411Y-82581247D02*
X141379411Y-82819342D01*
X141379411Y-82819342D02*
X141427030Y-82914580D01*
X141427030Y-82914580D02*
X141474649Y-82962200D01*
X141474649Y-82962200D02*
X141569887Y-83009819D01*
X141569887Y-83009819D02*
X141807982Y-83009819D01*
X141807982Y-83009819D02*
X141903220Y-82962200D01*
X141903220Y-82962200D02*
X141950839Y-82914580D01*
X140236554Y-81962200D02*
X141093696Y-83247914D01*
X139379411Y-83009819D02*
X139950839Y-83009819D01*
X139665125Y-83009819D02*
X139665125Y-82009819D01*
X139665125Y-82009819D02*
X139760363Y-82152676D01*
X139760363Y-82152676D02*
X139855601Y-82247914D01*
X139855601Y-82247914D02*
X139950839Y-82295533D01*
X138760363Y-82009819D02*
X138665125Y-82009819D01*
X138665125Y-82009819D02*
X138569887Y-82057438D01*
X138569887Y-82057438D02*
X138522268Y-82105057D01*
X138522268Y-82105057D02*
X138474649Y-82200295D01*
X138474649Y-82200295D02*
X138427030Y-82390771D01*
X138427030Y-82390771D02*
X138427030Y-82628866D01*
X138427030Y-82628866D02*
X138474649Y-82819342D01*
X138474649Y-82819342D02*
X138522268Y-82914580D01*
X138522268Y-82914580D02*
X138569887Y-82962200D01*
X138569887Y-82962200D02*
X138665125Y-83009819D01*
X138665125Y-83009819D02*
X138760363Y-83009819D01*
X138760363Y-83009819D02*
X138855601Y-82962200D01*
X138855601Y-82962200D02*
X138903220Y-82914580D01*
X138903220Y-82914580D02*
X138950839Y-82819342D01*
X138950839Y-82819342D02*
X138998458Y-82628866D01*
X138998458Y-82628866D02*
X138998458Y-82390771D01*
X138998458Y-82390771D02*
X138950839Y-82200295D01*
X138950839Y-82200295D02*
X138903220Y-82105057D01*
X138903220Y-82105057D02*
X138855601Y-82057438D01*
X138855601Y-82057438D02*
X138760363Y-82009819D01*
X137284173Y-81962200D02*
X138141315Y-83247914D01*
X136998458Y-82105057D02*
X136950839Y-82057438D01*
X136950839Y-82057438D02*
X136855601Y-82009819D01*
X136855601Y-82009819D02*
X136617506Y-82009819D01*
X136617506Y-82009819D02*
X136522268Y-82057438D01*
X136522268Y-82057438D02*
X136474649Y-82105057D01*
X136474649Y-82105057D02*
X136427030Y-82200295D01*
X136427030Y-82200295D02*
X136427030Y-82295533D01*
X136427030Y-82295533D02*
X136474649Y-82438390D01*
X136474649Y-82438390D02*
X137046077Y-83009819D01*
X137046077Y-83009819D02*
X136427030Y-83009819D01*
X135807982Y-82009819D02*
X135712744Y-82009819D01*
X135712744Y-82009819D02*
X135617506Y-82057438D01*
X135617506Y-82057438D02*
X135569887Y-82105057D01*
X135569887Y-82105057D02*
X135522268Y-82200295D01*
X135522268Y-82200295D02*
X135474649Y-82390771D01*
X135474649Y-82390771D02*
X135474649Y-82628866D01*
X135474649Y-82628866D02*
X135522268Y-82819342D01*
X135522268Y-82819342D02*
X135569887Y-82914580D01*
X135569887Y-82914580D02*
X135617506Y-82962200D01*
X135617506Y-82962200D02*
X135712744Y-83009819D01*
X135712744Y-83009819D02*
X135807982Y-83009819D01*
X135807982Y-83009819D02*
X135903220Y-82962200D01*
X135903220Y-82962200D02*
X135950839Y-82914580D01*
X135950839Y-82914580D02*
X135998458Y-82819342D01*
X135998458Y-82819342D02*
X136046077Y-82628866D01*
X136046077Y-82628866D02*
X136046077Y-82390771D01*
X136046077Y-82390771D02*
X135998458Y-82200295D01*
X135998458Y-82200295D02*
X135950839Y-82105057D01*
X135950839Y-82105057D02*
X135903220Y-82057438D01*
X135903220Y-82057438D02*
X135807982Y-82009819D01*
X135093696Y-82105057D02*
X135046077Y-82057438D01*
X135046077Y-82057438D02*
X134950839Y-82009819D01*
X134950839Y-82009819D02*
X134712744Y-82009819D01*
X134712744Y-82009819D02*
X134617506Y-82057438D01*
X134617506Y-82057438D02*
X134569887Y-82105057D01*
X134569887Y-82105057D02*
X134522268Y-82200295D01*
X134522268Y-82200295D02*
X134522268Y-82295533D01*
X134522268Y-82295533D02*
X134569887Y-82438390D01*
X134569887Y-82438390D02*
X135141315Y-83009819D01*
X135141315Y-83009819D02*
X134522268Y-83009819D01*
X133665125Y-82343152D02*
X133665125Y-83009819D01*
X133903220Y-81962200D02*
X134141315Y-82676485D01*
X134141315Y-82676485D02*
X133522268Y-82676485D01*
X141903220Y-84619819D02*
X141903220Y-83619819D01*
X141903220Y-83619819D02*
X141331792Y-84619819D01*
X141331792Y-84619819D02*
X141331792Y-83619819D01*
X140855601Y-84619819D02*
X140855601Y-83953152D01*
X140855601Y-83619819D02*
X140903220Y-83667438D01*
X140903220Y-83667438D02*
X140855601Y-83715057D01*
X140855601Y-83715057D02*
X140807982Y-83667438D01*
X140807982Y-83667438D02*
X140855601Y-83619819D01*
X140855601Y-83619819D02*
X140855601Y-83715057D01*
X139950840Y-84572200D02*
X140046078Y-84619819D01*
X140046078Y-84619819D02*
X140236554Y-84619819D01*
X140236554Y-84619819D02*
X140331792Y-84572200D01*
X140331792Y-84572200D02*
X140379411Y-84524580D01*
X140379411Y-84524580D02*
X140427030Y-84429342D01*
X140427030Y-84429342D02*
X140427030Y-84143628D01*
X140427030Y-84143628D02*
X140379411Y-84048390D01*
X140379411Y-84048390D02*
X140331792Y-84000771D01*
X140331792Y-84000771D02*
X140236554Y-83953152D01*
X140236554Y-83953152D02*
X140046078Y-83953152D01*
X140046078Y-83953152D02*
X139950840Y-84000771D01*
X139522268Y-84619819D02*
X139522268Y-83619819D01*
X139093697Y-84619819D02*
X139093697Y-84096009D01*
X139093697Y-84096009D02*
X139141316Y-84000771D01*
X139141316Y-84000771D02*
X139236554Y-83953152D01*
X139236554Y-83953152D02*
X139379411Y-83953152D01*
X139379411Y-83953152D02*
X139474649Y-84000771D01*
X139474649Y-84000771D02*
X139522268Y-84048390D01*
X138474649Y-84619819D02*
X138569887Y-84572200D01*
X138569887Y-84572200D02*
X138617506Y-84524580D01*
X138617506Y-84524580D02*
X138665125Y-84429342D01*
X138665125Y-84429342D02*
X138665125Y-84143628D01*
X138665125Y-84143628D02*
X138617506Y-84048390D01*
X138617506Y-84048390D02*
X138569887Y-84000771D01*
X138569887Y-84000771D02*
X138474649Y-83953152D01*
X138474649Y-83953152D02*
X138331792Y-83953152D01*
X138331792Y-83953152D02*
X138236554Y-84000771D01*
X138236554Y-84000771D02*
X138188935Y-84048390D01*
X138188935Y-84048390D02*
X138141316Y-84143628D01*
X138141316Y-84143628D02*
X138141316Y-84429342D01*
X138141316Y-84429342D02*
X138188935Y-84524580D01*
X138188935Y-84524580D02*
X138236554Y-84572200D01*
X138236554Y-84572200D02*
X138331792Y-84619819D01*
X138331792Y-84619819D02*
X138474649Y-84619819D01*
X137569887Y-84619819D02*
X137665125Y-84572200D01*
X137665125Y-84572200D02*
X137712744Y-84476961D01*
X137712744Y-84476961D02*
X137712744Y-83619819D01*
X136760363Y-84619819D02*
X136760363Y-84096009D01*
X136760363Y-84096009D02*
X136807982Y-84000771D01*
X136807982Y-84000771D02*
X136903220Y-83953152D01*
X136903220Y-83953152D02*
X137093696Y-83953152D01*
X137093696Y-83953152D02*
X137188934Y-84000771D01*
X136760363Y-84572200D02*
X136855601Y-84619819D01*
X136855601Y-84619819D02*
X137093696Y-84619819D01*
X137093696Y-84619819D02*
X137188934Y-84572200D01*
X137188934Y-84572200D02*
X137236553Y-84476961D01*
X137236553Y-84476961D02*
X137236553Y-84381723D01*
X137236553Y-84381723D02*
X137188934Y-84286485D01*
X137188934Y-84286485D02*
X137093696Y-84238866D01*
X137093696Y-84238866D02*
X136855601Y-84238866D01*
X136855601Y-84238866D02*
X136760363Y-84191247D01*
X136331791Y-84572200D02*
X136236553Y-84619819D01*
X136236553Y-84619819D02*
X136046077Y-84619819D01*
X136046077Y-84619819D02*
X135950839Y-84572200D01*
X135950839Y-84572200D02*
X135903220Y-84476961D01*
X135903220Y-84476961D02*
X135903220Y-84429342D01*
X135903220Y-84429342D02*
X135950839Y-84334104D01*
X135950839Y-84334104D02*
X136046077Y-84286485D01*
X136046077Y-84286485D02*
X136188934Y-84286485D01*
X136188934Y-84286485D02*
X136284172Y-84238866D01*
X136284172Y-84238866D02*
X136331791Y-84143628D01*
X136331791Y-84143628D02*
X136331791Y-84096009D01*
X136331791Y-84096009D02*
X136284172Y-84000771D01*
X136284172Y-84000771D02*
X136188934Y-83953152D01*
X136188934Y-83953152D02*
X136046077Y-83953152D01*
X136046077Y-83953152D02*
X135950839Y-84000771D01*
X134236553Y-84619819D02*
X134712743Y-84619819D01*
X134712743Y-84619819D02*
X134712743Y-83619819D01*
X133903219Y-84619819D02*
X133903219Y-83953152D01*
X133903219Y-83619819D02*
X133950838Y-83667438D01*
X133950838Y-83667438D02*
X133903219Y-83715057D01*
X133903219Y-83715057D02*
X133855600Y-83667438D01*
X133855600Y-83667438D02*
X133903219Y-83619819D01*
X133903219Y-83619819D02*
X133903219Y-83715057D01*
X132998458Y-83953152D02*
X132998458Y-84762676D01*
X132998458Y-84762676D02*
X133046077Y-84857914D01*
X133046077Y-84857914D02*
X133093696Y-84905533D01*
X133093696Y-84905533D02*
X133188934Y-84953152D01*
X133188934Y-84953152D02*
X133331791Y-84953152D01*
X133331791Y-84953152D02*
X133427029Y-84905533D01*
X132998458Y-84572200D02*
X133093696Y-84619819D01*
X133093696Y-84619819D02*
X133284172Y-84619819D01*
X133284172Y-84619819D02*
X133379410Y-84572200D01*
X133379410Y-84572200D02*
X133427029Y-84524580D01*
X133427029Y-84524580D02*
X133474648Y-84429342D01*
X133474648Y-84429342D02*
X133474648Y-84143628D01*
X133474648Y-84143628D02*
X133427029Y-84048390D01*
X133427029Y-84048390D02*
X133379410Y-84000771D01*
X133379410Y-84000771D02*
X133284172Y-83953152D01*
X133284172Y-83953152D02*
X133093696Y-83953152D01*
X133093696Y-83953152D02*
X132998458Y-84000771D01*
X132141315Y-84572200D02*
X132236553Y-84619819D01*
X132236553Y-84619819D02*
X132427029Y-84619819D01*
X132427029Y-84619819D02*
X132522267Y-84572200D01*
X132522267Y-84572200D02*
X132569886Y-84476961D01*
X132569886Y-84476961D02*
X132569886Y-84096009D01*
X132569886Y-84096009D02*
X132522267Y-84000771D01*
X132522267Y-84000771D02*
X132427029Y-83953152D01*
X132427029Y-83953152D02*
X132236553Y-83953152D01*
X132236553Y-83953152D02*
X132141315Y-84000771D01*
X132141315Y-84000771D02*
X132093696Y-84096009D01*
X132093696Y-84096009D02*
X132093696Y-84191247D01*
X132093696Y-84191247D02*
X132569886Y-84286485D01*
X131665124Y-84619819D02*
X131665124Y-83953152D01*
X131665124Y-84143628D02*
X131617505Y-84048390D01*
X131617505Y-84048390D02*
X131569886Y-84000771D01*
X131569886Y-84000771D02*
X131474648Y-83953152D01*
X131474648Y-83953152D02*
X131379410Y-83953152D01*
X141950839Y-85944104D02*
X141474649Y-85944104D01*
X142046077Y-86229819D02*
X141712744Y-85229819D01*
X141712744Y-85229819D02*
X141379411Y-86229819D01*
X140474649Y-86229819D02*
X140807982Y-85753628D01*
X141046077Y-86229819D02*
X141046077Y-85229819D01*
X141046077Y-85229819D02*
X140665125Y-85229819D01*
X140665125Y-85229819D02*
X140569887Y-85277438D01*
X140569887Y-85277438D02*
X140522268Y-85325057D01*
X140522268Y-85325057D02*
X140474649Y-85420295D01*
X140474649Y-85420295D02*
X140474649Y-85563152D01*
X140474649Y-85563152D02*
X140522268Y-85658390D01*
X140522268Y-85658390D02*
X140569887Y-85706009D01*
X140569887Y-85706009D02*
X140665125Y-85753628D01*
X140665125Y-85753628D02*
X141046077Y-85753628D01*
X140188934Y-85229819D02*
X139617506Y-85229819D01*
X139903220Y-86229819D02*
X139903220Y-85229819D01*
X139331791Y-86182200D02*
X139188934Y-86229819D01*
X139188934Y-86229819D02*
X138950839Y-86229819D01*
X138950839Y-86229819D02*
X138855601Y-86182200D01*
X138855601Y-86182200D02*
X138807982Y-86134580D01*
X138807982Y-86134580D02*
X138760363Y-86039342D01*
X138760363Y-86039342D02*
X138760363Y-85944104D01*
X138760363Y-85944104D02*
X138807982Y-85848866D01*
X138807982Y-85848866D02*
X138855601Y-85801247D01*
X138855601Y-85801247D02*
X138950839Y-85753628D01*
X138950839Y-85753628D02*
X139141315Y-85706009D01*
X139141315Y-85706009D02*
X139236553Y-85658390D01*
X139236553Y-85658390D02*
X139284172Y-85610771D01*
X139284172Y-85610771D02*
X139331791Y-85515533D01*
X139331791Y-85515533D02*
X139331791Y-85420295D01*
X139331791Y-85420295D02*
X139284172Y-85325057D01*
X139284172Y-85325057D02*
X139236553Y-85277438D01*
X139236553Y-85277438D02*
X139141315Y-85229819D01*
X139141315Y-85229819D02*
X138903220Y-85229819D01*
X138903220Y-85229819D02*
X138760363Y-85277438D01*
X137093696Y-86229819D02*
X137569886Y-86229819D01*
X137569886Y-86229819D02*
X137569886Y-85229819D01*
X136331791Y-86229819D02*
X136331791Y-85706009D01*
X136331791Y-85706009D02*
X136379410Y-85610771D01*
X136379410Y-85610771D02*
X136474648Y-85563152D01*
X136474648Y-85563152D02*
X136665124Y-85563152D01*
X136665124Y-85563152D02*
X136760362Y-85610771D01*
X136331791Y-86182200D02*
X136427029Y-86229819D01*
X136427029Y-86229819D02*
X136665124Y-86229819D01*
X136665124Y-86229819D02*
X136760362Y-86182200D01*
X136760362Y-86182200D02*
X136807981Y-86086961D01*
X136807981Y-86086961D02*
X136807981Y-85991723D01*
X136807981Y-85991723D02*
X136760362Y-85896485D01*
X136760362Y-85896485D02*
X136665124Y-85848866D01*
X136665124Y-85848866D02*
X136427029Y-85848866D01*
X136427029Y-85848866D02*
X136331791Y-85801247D01*
X135855600Y-86229819D02*
X135855600Y-85229819D01*
X135855600Y-85610771D02*
X135760362Y-85563152D01*
X135760362Y-85563152D02*
X135569886Y-85563152D01*
X135569886Y-85563152D02*
X135474648Y-85610771D01*
X135474648Y-85610771D02*
X135427029Y-85658390D01*
X135427029Y-85658390D02*
X135379410Y-85753628D01*
X135379410Y-85753628D02*
X135379410Y-86039342D01*
X135379410Y-86039342D02*
X135427029Y-86134580D01*
X135427029Y-86134580D02*
X135474648Y-86182200D01*
X135474648Y-86182200D02*
X135569886Y-86229819D01*
X135569886Y-86229819D02*
X135760362Y-86229819D01*
X135760362Y-86229819D02*
X135855600Y-86182200D01*
X134188933Y-85848866D02*
X133427029Y-85848866D01*
X132188933Y-85229819D02*
X132188933Y-86039342D01*
X132188933Y-86039342D02*
X132141314Y-86134580D01*
X132141314Y-86134580D02*
X132093695Y-86182200D01*
X132093695Y-86182200D02*
X131998457Y-86229819D01*
X131998457Y-86229819D02*
X131807981Y-86229819D01*
X131807981Y-86229819D02*
X131712743Y-86182200D01*
X131712743Y-86182200D02*
X131665124Y-86134580D01*
X131665124Y-86134580D02*
X131617505Y-86039342D01*
X131617505Y-86039342D02*
X131617505Y-85229819D01*
X131188933Y-86182200D02*
X131046076Y-86229819D01*
X131046076Y-86229819D02*
X130807981Y-86229819D01*
X130807981Y-86229819D02*
X130712743Y-86182200D01*
X130712743Y-86182200D02*
X130665124Y-86134580D01*
X130665124Y-86134580D02*
X130617505Y-86039342D01*
X130617505Y-86039342D02*
X130617505Y-85944104D01*
X130617505Y-85944104D02*
X130665124Y-85848866D01*
X130665124Y-85848866D02*
X130712743Y-85801247D01*
X130712743Y-85801247D02*
X130807981Y-85753628D01*
X130807981Y-85753628D02*
X130998457Y-85706009D01*
X130998457Y-85706009D02*
X131093695Y-85658390D01*
X131093695Y-85658390D02*
X131141314Y-85610771D01*
X131141314Y-85610771D02*
X131188933Y-85515533D01*
X131188933Y-85515533D02*
X131188933Y-85420295D01*
X131188933Y-85420295D02*
X131141314Y-85325057D01*
X131141314Y-85325057D02*
X131093695Y-85277438D01*
X131093695Y-85277438D02*
X130998457Y-85229819D01*
X130998457Y-85229819D02*
X130760362Y-85229819D01*
X130760362Y-85229819D02*
X130617505Y-85277438D01*
X129617505Y-86134580D02*
X129665124Y-86182200D01*
X129665124Y-86182200D02*
X129807981Y-86229819D01*
X129807981Y-86229819D02*
X129903219Y-86229819D01*
X129903219Y-86229819D02*
X130046076Y-86182200D01*
X130046076Y-86182200D02*
X130141314Y-86086961D01*
X130141314Y-86086961D02*
X130188933Y-85991723D01*
X130188933Y-85991723D02*
X130236552Y-85801247D01*
X130236552Y-85801247D02*
X130236552Y-85658390D01*
X130236552Y-85658390D02*
X130188933Y-85467914D01*
X130188933Y-85467914D02*
X130141314Y-85372676D01*
X130141314Y-85372676D02*
X130046076Y-85277438D01*
X130046076Y-85277438D02*
X129903219Y-85229819D01*
X129903219Y-85229819D02*
X129807981Y-85229819D01*
X129807981Y-85229819D02*
X129665124Y-85277438D01*
X129665124Y-85277438D02*
X129617505Y-85325057D01*
X102838094Y-56858819D02*
X102171428Y-57858819D01*
X102171428Y-56858819D02*
X102838094Y-57858819D01*
X101838094Y-57573104D02*
X101361904Y-57573104D01*
X101933332Y-57858819D02*
X101599999Y-56858819D01*
X101599999Y-56858819D02*
X101266666Y-57858819D01*
X100409523Y-57858819D02*
X100980951Y-57858819D01*
X100695237Y-57858819D02*
X100695237Y-56858819D01*
X100695237Y-56858819D02*
X100790475Y-57001676D01*
X100790475Y-57001676D02*
X100885713Y-57096914D01*
X100885713Y-57096914D02*
X100980951Y-57144533D01*
X163298094Y-63319819D02*
X163298094Y-62319819D01*
X163298094Y-62319819D02*
X163059999Y-62319819D01*
X163059999Y-62319819D02*
X162917142Y-62367438D01*
X162917142Y-62367438D02*
X162821904Y-62462676D01*
X162821904Y-62462676D02*
X162774285Y-62557914D01*
X162774285Y-62557914D02*
X162726666Y-62748390D01*
X162726666Y-62748390D02*
X162726666Y-62891247D01*
X162726666Y-62891247D02*
X162774285Y-63081723D01*
X162774285Y-63081723D02*
X162821904Y-63176961D01*
X162821904Y-63176961D02*
X162917142Y-63272200D01*
X162917142Y-63272200D02*
X163059999Y-63319819D01*
X163059999Y-63319819D02*
X163298094Y-63319819D01*
X162107618Y-62319819D02*
X162012380Y-62319819D01*
X162012380Y-62319819D02*
X161917142Y-62367438D01*
X161917142Y-62367438D02*
X161869523Y-62415057D01*
X161869523Y-62415057D02*
X161821904Y-62510295D01*
X161821904Y-62510295D02*
X161774285Y-62700771D01*
X161774285Y-62700771D02*
X161774285Y-62938866D01*
X161774285Y-62938866D02*
X161821904Y-63129342D01*
X161821904Y-63129342D02*
X161869523Y-63224580D01*
X161869523Y-63224580D02*
X161917142Y-63272200D01*
X161917142Y-63272200D02*
X162012380Y-63319819D01*
X162012380Y-63319819D02*
X162107618Y-63319819D01*
X162107618Y-63319819D02*
X162202856Y-63272200D01*
X162202856Y-63272200D02*
X162250475Y-63224580D01*
X162250475Y-63224580D02*
X162298094Y-63129342D01*
X162298094Y-63129342D02*
X162345713Y-62938866D01*
X162345713Y-62938866D02*
X162345713Y-62700771D01*
X162345713Y-62700771D02*
X162298094Y-62510295D01*
X162298094Y-62510295D02*
X162250475Y-62415057D01*
X162250475Y-62415057D02*
X162202856Y-62367438D01*
X162202856Y-62367438D02*
X162107618Y-62319819D01*
X161544000Y-80115580D02*
X161591619Y-80163200D01*
X161591619Y-80163200D02*
X161544000Y-80210819D01*
X161544000Y-80210819D02*
X161496381Y-80163200D01*
X161496381Y-80163200D02*
X161544000Y-80115580D01*
X161544000Y-80115580D02*
X161544000Y-80210819D01*
%TO.C,XA1*%
X99060000Y-58420000D02*
X99060000Y-111760000D01*
X99060000Y-58420000D02*
X196596000Y-58420000D01*
X99060000Y-111760000D02*
X198120000Y-111760000D01*
X196596000Y-58420000D02*
X198120000Y-59944000D01*
X198120000Y-71120000D02*
X198120000Y-59944000D01*
X198120000Y-110490000D02*
X200660000Y-107950000D01*
X198120000Y-111760000D02*
X198120000Y-110490000D01*
X200660000Y-73660000D02*
X198120000Y-71120000D01*
X200660000Y-107950000D02*
X200660000Y-73660000D01*
%TD*%
M02*
