%TF.GenerationSoftware,KiCad,Pcbnew,7.0.10*%
%TF.CreationDate,2024-05-14T13:40:59-04:00*%
%TF.ProjectId,Power PCB,506f7765-7220-4504-9342-2e6b69636164,rev?*%
%TF.SameCoordinates,Original*%
%TF.FileFunction,Copper,L2,Bot*%
%TF.FilePolarity,Positive*%
%FSLAX46Y46*%
G04 Gerber Fmt 4.6, Leading zero omitted, Abs format (unit mm)*
G04 Created by KiCad (PCBNEW 7.0.10) date 2024-05-14 13:40:59*
%MOMM*%
%LPD*%
G01*
G04 APERTURE LIST*
G04 Aperture macros list*
%AMRoundRect*
0 Rectangle with rounded corners*
0 $1 Rounding radius*
0 $2 $3 $4 $5 $6 $7 $8 $9 X,Y pos of 4 corners*
0 Add a 4 corners polygon primitive as box body*
4,1,4,$2,$3,$4,$5,$6,$7,$8,$9,$2,$3,0*
0 Add four circle primitives for the rounded corners*
1,1,$1+$1,$2,$3*
1,1,$1+$1,$4,$5*
1,1,$1+$1,$6,$7*
1,1,$1+$1,$8,$9*
0 Add four rect primitives between the rounded corners*
20,1,$1+$1,$2,$3,$4,$5,0*
20,1,$1+$1,$4,$5,$6,$7,0*
20,1,$1+$1,$6,$7,$8,$9,0*
20,1,$1+$1,$8,$9,$2,$3,0*%
G04 Aperture macros list end*
%TA.AperFunction,ComponentPad*%
%ADD10O,1.727200X1.727200*%
%TD*%
%TA.AperFunction,ComponentPad*%
%ADD11R,1.727200X1.727200*%
%TD*%
%TA.AperFunction,ComponentPad*%
%ADD12R,1.600000X1.600000*%
%TD*%
%TA.AperFunction,ComponentPad*%
%ADD13O,1.600000X1.600000*%
%TD*%
%TA.AperFunction,ComponentPad*%
%ADD14R,3.500000X3.500000*%
%TD*%
%TA.AperFunction,ComponentPad*%
%ADD15RoundRect,0.750000X-0.750000X-1.000000X0.750000X-1.000000X0.750000X1.000000X-0.750000X1.000000X0*%
%TD*%
%TA.AperFunction,ComponentPad*%
%ADD16RoundRect,0.875000X-0.875000X-0.875000X0.875000X-0.875000X0.875000X0.875000X-0.875000X0.875000X0*%
%TD*%
%TA.AperFunction,ComponentPad*%
%ADD17C,1.600000*%
%TD*%
%TA.AperFunction,ComponentPad*%
%ADD18R,2.200000X2.200000*%
%TD*%
%TA.AperFunction,ComponentPad*%
%ADD19O,2.200000X2.200000*%
%TD*%
%TA.AperFunction,ViaPad*%
%ADD20C,0.800000*%
%TD*%
%TA.AperFunction,Conductor*%
%ADD21C,0.250000*%
%TD*%
G04 APERTURE END LIST*
D10*
%TO.P,XA1,3V3,3.3V*%
%TO.N,Net-(U2-VS)*%
X134620000Y-109220000D03*
%TO.P,XA1,5V1,5V*%
%TO.N,Net-(U1-VO)*%
X137160000Y-109220000D03*
%TO.P,XA1,5V2,SPI_5V*%
%TO.N,unconnected-(XA1-SPI_5V-Pad5V2)*%
X165227000Y-81280000D03*
%TO.P,XA1,5V3,5V*%
%TO.N,unconnected-(XA1-5V-Pad5V3)*%
X193040000Y-60960000D03*
%TO.P,XA1,5V4,5V*%
%TO.N,unconnected-(XA1-5V-Pad5V4)*%
X195580000Y-60960000D03*
%TO.P,XA1,A0,A0*%
%TO.N,unconnected-(XA1-PadA0)*%
X149860000Y-109220000D03*
%TO.P,XA1,A1,A1*%
%TO.N,unconnected-(XA1-PadA1)*%
X152400000Y-109220000D03*
%TO.P,XA1,A2,A2*%
%TO.N,unconnected-(XA1-PadA2)*%
X154940000Y-109220000D03*
%TO.P,XA1,A3,A3*%
%TO.N,unconnected-(XA1-PadA3)*%
X157480000Y-109220000D03*
%TO.P,XA1,A4,A4*%
%TO.N,unconnected-(XA1-PadA4)*%
X160020000Y-109220000D03*
%TO.P,XA1,A5,A5*%
%TO.N,unconnected-(XA1-PadA5)*%
X162560000Y-109220000D03*
%TO.P,XA1,A6,A6*%
%TO.N,unconnected-(XA1-PadA6)*%
X165100000Y-109220000D03*
%TO.P,XA1,A7,A7*%
%TO.N,unconnected-(XA1-PadA7)*%
X167640000Y-109220000D03*
%TO.P,XA1,A8,A8*%
%TO.N,unconnected-(XA1-PadA8)*%
X172720000Y-109220000D03*
%TO.P,XA1,A9,A9*%
%TO.N,unconnected-(XA1-PadA9)*%
X175260000Y-109220000D03*
%TO.P,XA1,A10,A10*%
%TO.N,unconnected-(XA1-PadA10)*%
X177800000Y-109220000D03*
%TO.P,XA1,A11,A11*%
%TO.N,unconnected-(XA1-PadA11)*%
X180340000Y-109220000D03*
%TO.P,XA1,A12,A12*%
%TO.N,unconnected-(XA1-PadA12)*%
X182880000Y-109220000D03*
%TO.P,XA1,A13,A13*%
%TO.N,unconnected-(XA1-PadA13)*%
X185420000Y-109220000D03*
%TO.P,XA1,A14,A14*%
%TO.N,unconnected-(XA1-PadA14)*%
X187960000Y-109220000D03*
%TO.P,XA1,A15,A15*%
%TO.N,unconnected-(XA1-PadA15)*%
X190500000Y-109220000D03*
%TO.P,XA1,AREF,AREF*%
%TO.N,unconnected-(XA1-PadAREF)*%
X122936000Y-60960000D03*
%TO.P,XA1,D0,D0_RX0*%
%TO.N,unconnected-(XA1-D0_RX0-PadD0)*%
X162560000Y-60960000D03*
%TO.P,XA1,D1,D1_TX0*%
%TO.N,unconnected-(XA1-D1_TX0-PadD1)*%
X160020000Y-60960000D03*
%TO.P,XA1,D2,D2_INT0*%
%TO.N,unconnected-(XA1-D2_INT0-PadD2)*%
X157480000Y-60960000D03*
%TO.P,XA1,D3,D3_INT1*%
%TO.N,unconnected-(XA1-D3_INT1-PadD3)*%
X154940000Y-60960000D03*
%TO.P,XA1,D4,D4*%
%TO.N,unconnected-(XA1-PadD4)*%
X152400000Y-60960000D03*
%TO.P,XA1,D5,D5*%
%TO.N,unconnected-(XA1-PadD5)*%
X149860000Y-60960000D03*
%TO.P,XA1,D6,D6*%
%TO.N,unconnected-(XA1-PadD6)*%
X147320000Y-60960000D03*
%TO.P,XA1,D7,D7*%
%TO.N,unconnected-(XA1-PadD7)*%
X144780000Y-60960000D03*
%TO.P,XA1,D8,D8*%
%TO.N,unconnected-(XA1-PadD8)*%
X140716000Y-60960000D03*
%TO.P,XA1,D9,D9*%
%TO.N,unconnected-(XA1-PadD9)*%
X138176000Y-60960000D03*
%TO.P,XA1,D10,D10*%
%TO.N,unconnected-(XA1-PadD10)*%
X135636000Y-60960000D03*
%TO.P,XA1,D11,D11*%
%TO.N,unconnected-(XA1-PadD11)*%
X133096000Y-60960000D03*
%TO.P,XA1,D12,D12*%
%TO.N,unconnected-(XA1-PadD12)*%
X130556000Y-60960000D03*
%TO.P,XA1,D13,D13*%
%TO.N,unconnected-(XA1-PadD13)*%
X128016000Y-60960000D03*
%TO.P,XA1,D14,D14_TX3*%
%TO.N,unconnected-(XA1-D14_TX3-PadD14)*%
X167640000Y-60960000D03*
%TO.P,XA1,D15,D15_RX3*%
%TO.N,unconnected-(XA1-D15_RX3-PadD15)*%
X170180000Y-60960000D03*
%TO.P,XA1,D16,D16_TX2*%
%TO.N,unconnected-(XA1-D16_TX2-PadD16)*%
X172720000Y-60960000D03*
%TO.P,XA1,D17,D17_RX2*%
%TO.N,unconnected-(XA1-D17_RX2-PadD17)*%
X175260000Y-60960000D03*
%TO.P,XA1,D18,D18_TX1*%
%TO.N,unconnected-(XA1-D18_TX1-PadD18)*%
X177800000Y-60960000D03*
%TO.P,XA1,D19,D19_RX1*%
%TO.N,unconnected-(XA1-D19_RX1-PadD19)*%
X180340000Y-60960000D03*
%TO.P,XA1,D20,D20_SDA*%
%TO.N,unconnected-(XA1-D20_SDA-PadD20)*%
X182880000Y-60960000D03*
%TO.P,XA1,D21,D21_SCL*%
%TO.N,unconnected-(XA1-D21_SCL-PadD21)*%
X185420000Y-60960000D03*
%TO.P,XA1,D22,D22*%
%TO.N,unconnected-(XA1-PadD22)*%
X193040000Y-63500000D03*
%TO.P,XA1,D23,D23*%
%TO.N,unconnected-(XA1-PadD23)*%
X195580000Y-63500000D03*
%TO.P,XA1,D24,D24*%
%TO.N,unconnected-(XA1-PadD24)*%
X193040000Y-66040000D03*
%TO.P,XA1,D25,D25*%
%TO.N,unconnected-(XA1-PadD25)*%
X195580000Y-66040000D03*
%TO.P,XA1,D26,D26*%
%TO.N,unconnected-(XA1-PadD26)*%
X193040000Y-68580000D03*
%TO.P,XA1,D27,D27*%
%TO.N,unconnected-(XA1-PadD27)*%
X195580000Y-68580000D03*
%TO.P,XA1,D28,D28*%
%TO.N,unconnected-(XA1-PadD28)*%
X193040000Y-71120000D03*
%TO.P,XA1,D29,D29*%
%TO.N,unconnected-(XA1-PadD29)*%
X195580000Y-71120000D03*
%TO.P,XA1,D30,D30*%
%TO.N,unconnected-(XA1-PadD30)*%
X193040000Y-73660000D03*
%TO.P,XA1,D31,D31*%
%TO.N,unconnected-(XA1-PadD31)*%
X195580000Y-73660000D03*
%TO.P,XA1,D32,D32*%
%TO.N,unconnected-(XA1-PadD32)*%
X193040000Y-76200000D03*
%TO.P,XA1,D33,D33*%
%TO.N,unconnected-(XA1-PadD33)*%
X195580000Y-76200000D03*
%TO.P,XA1,D34,D34*%
%TO.N,unconnected-(XA1-PadD34)*%
X193040000Y-78740000D03*
%TO.P,XA1,D35,D35*%
%TO.N,unconnected-(XA1-PadD35)*%
X195580000Y-78740000D03*
%TO.P,XA1,D36,D36*%
%TO.N,unconnected-(XA1-PadD36)*%
X193040000Y-81280000D03*
%TO.P,XA1,D37,D37*%
%TO.N,unconnected-(XA1-PadD37)*%
X195580000Y-81280000D03*
%TO.P,XA1,D38,D38*%
%TO.N,unconnected-(XA1-PadD38)*%
X193040000Y-83820000D03*
%TO.P,XA1,D39,D39*%
%TO.N,unconnected-(XA1-PadD39)*%
X195580000Y-83820000D03*
%TO.P,XA1,D40,D40*%
%TO.N,unconnected-(XA1-PadD40)*%
X193040000Y-86360000D03*
%TO.P,XA1,D41,D41*%
%TO.N,unconnected-(XA1-PadD41)*%
X195580000Y-86360000D03*
%TO.P,XA1,D42,D42*%
%TO.N,unconnected-(XA1-PadD42)*%
X193040000Y-88900000D03*
%TO.P,XA1,D43,D43*%
%TO.N,unconnected-(XA1-PadD43)*%
X195580000Y-88900000D03*
%TO.P,XA1,D44,D44*%
%TO.N,unconnected-(XA1-PadD44)*%
X193040000Y-91440000D03*
%TO.P,XA1,D45,D45*%
%TO.N,unconnected-(XA1-PadD45)*%
X195580000Y-91440000D03*
%TO.P,XA1,D46,D46*%
%TO.N,unconnected-(XA1-PadD46)*%
X193040000Y-93980000D03*
%TO.P,XA1,D47,D47*%
%TO.N,unconnected-(XA1-PadD47)*%
X195580000Y-93980000D03*
%TO.P,XA1,D48,D48*%
%TO.N,unconnected-(XA1-PadD48)*%
X193040000Y-96520000D03*
%TO.P,XA1,D49,D49*%
%TO.N,unconnected-(XA1-PadD49)*%
X195580000Y-96520000D03*
%TO.P,XA1,D50,D50*%
%TO.N,unconnected-(XA1-PadD50)*%
X193040000Y-99060000D03*
%TO.P,XA1,D51,D51*%
%TO.N,unconnected-(XA1-PadD51)*%
X195580000Y-99060000D03*
%TO.P,XA1,D52,D52*%
%TO.N,unconnected-(XA1-PadD52)*%
X193040000Y-101600000D03*
%TO.P,XA1,D53,D53_SS*%
%TO.N,unconnected-(XA1-D53_SS-PadD53)*%
X195580000Y-101600000D03*
D11*
%TO.P,XA1,GND1,GND*%
%TO.N,GND*%
X125476000Y-60960000D03*
%TO.P,XA1,GND2,GND*%
X139700000Y-109220000D03*
%TO.P,XA1,GND3,GND*%
X142240000Y-109220000D03*
%TO.P,XA1,GND4,SPI_GND*%
%TO.N,unconnected-(XA1-SPI_GND-PadGND4)*%
X165227000Y-86360000D03*
%TO.P,XA1,GND5,GND*%
%TO.N,GND*%
X193040000Y-104140000D03*
%TO.P,XA1,GND6,GND*%
X195580000Y-104140000D03*
D10*
%TO.P,XA1,IORF,IOREF*%
%TO.N,unconnected-(XA1-IOREF-PadIORF)*%
X129540000Y-109220000D03*
%TO.P,XA1,MISO,SPI_MISO*%
%TO.N,unconnected-(XA1-SPI_MISO-PadMISO)*%
X162687000Y-81280000D03*
%TO.P,XA1,MOSI,SPI_MOSI*%
%TO.N,unconnected-(XA1-SPI_MOSI-PadMOSI)*%
X165227000Y-83820000D03*
%TO.P,XA1,RST1,RESET*%
%TO.N,unconnected-(XA1-RESET-PadRST1)*%
X132080000Y-109220000D03*
%TO.P,XA1,RST2,SPI_RESET*%
%TO.N,unconnected-(XA1-SPI_RESET-PadRST2)*%
X162687000Y-86360000D03*
%TO.P,XA1,SCK,SPI_SCK*%
%TO.N,unconnected-(XA1-SPI_SCK-PadSCK)*%
X162687000Y-83820000D03*
%TO.P,XA1,SCL,SCL*%
%TO.N,Net-(U2-SCL)*%
X117856000Y-60960000D03*
%TO.P,XA1,SDA,SDA*%
%TO.N,Net-(U2-SDA)*%
X120396000Y-60960000D03*
%TO.P,XA1,VBAT,VBAT*%
%TO.N,Net-(D2-K)*%
X127000000Y-109220000D03*
%TO.P,XA1,VIN,VIN*%
%TO.N,unconnected-(XA1-PadVIN)*%
X144780000Y-109220000D03*
%TD*%
D12*
%TO.P,SW1,1*%
%TO.N,Net-(U1-VO)*%
X128280000Y-91440000D03*
D13*
%TO.P,SW1,2*%
%TO.N,Net-(D2-A)*%
X135900000Y-91440000D03*
%TD*%
D14*
%TO.P,J1,1*%
%TO.N,Net-(J1-Pad1)*%
X125380000Y-67622500D03*
D15*
%TO.P,J1,2*%
%TO.N,GND*%
X119380000Y-67622500D03*
D16*
%TO.P,J1,3*%
X122380000Y-72322500D03*
%TD*%
D12*
%TO.P,SW2,1*%
%TO.N,Net-(J1-Pad1)*%
X137160000Y-64780000D03*
D13*
%TO.P,SW2,2*%
%TO.N,Net-(D1-A)*%
X137160000Y-72400000D03*
%TD*%
D12*
%TO.P,C2,1*%
%TO.N,Net-(U1-VI)*%
X128310000Y-74930000D03*
D17*
%TO.P,C2,2*%
%TO.N,GND*%
X130810000Y-74930000D03*
%TD*%
D18*
%TO.P,D2,1,K*%
%TO.N,Net-(D2-K)*%
X135890000Y-105410000D03*
D19*
%TO.P,D2,2,A*%
%TO.N,Net-(D2-A)*%
X135890000Y-95250000D03*
%TD*%
D20*
%TO.N,GND*%
X124460000Y-76200000D03*
X140970000Y-105410000D03*
X125730000Y-88900000D03*
X125730000Y-96520000D03*
X132080000Y-106680000D03*
X130810000Y-63500000D03*
X132080000Y-96520000D03*
X134620000Y-76200000D03*
%TO.N,Net-(U2-SCL)*%
X138430000Y-100330000D03*
%TO.N,Net-(U2-SDA)*%
X138430000Y-96520000D03*
%TD*%
D21*
%TO.N,Net-(U2-SCL)*%
X146050000Y-92710000D02*
X146050000Y-76200000D01*
X141208335Y-59771400D02*
X119044600Y-59771400D01*
X138430000Y-100330000D02*
X146050000Y-92710000D01*
X141904600Y-72054600D02*
X141904600Y-60467665D01*
X146050000Y-76200000D02*
X141904600Y-72054600D01*
X141904600Y-60467665D02*
X141208335Y-59771400D01*
X119044600Y-59771400D02*
X117856000Y-60960000D01*
%TO.N,Net-(U1-VO)*%
X136850000Y-109220000D02*
X137160000Y-109220000D01*
X128280000Y-91440000D02*
X128280000Y-100650000D01*
X128280000Y-100650000D02*
X136850000Y-109220000D01*
%TO.N,Net-(U2-SDA)*%
X138430000Y-96520000D02*
X144780000Y-90170000D01*
X140970000Y-72390000D02*
X140970000Y-62230000D01*
X121666000Y-62230000D02*
X120396000Y-60960000D01*
X144780000Y-76200000D02*
X140970000Y-72390000D01*
X140970000Y-62230000D02*
X121666000Y-62230000D01*
X144780000Y-90170000D02*
X144780000Y-76200000D01*
%TD*%
%TA.AperFunction,Conductor*%
%TO.N,GND*%
G36*
X141773155Y-109006799D02*
G01*
X141732000Y-109146961D01*
X141732000Y-109293039D01*
X141773155Y-109433201D01*
X141796804Y-109470000D01*
X140143196Y-109470000D01*
X140166845Y-109433201D01*
X140208000Y-109293039D01*
X140208000Y-109146961D01*
X140166845Y-109006799D01*
X140143196Y-108970000D01*
X141796804Y-108970000D01*
X141773155Y-109006799D01*
G37*
%TD.AperFunction*%
%TA.AperFunction,Conductor*%
G36*
X119207905Y-61643753D02*
G01*
X119229804Y-61669025D01*
X119315844Y-61800719D01*
X119315849Y-61800724D01*
X119315850Y-61800727D01*
X119468950Y-61967036D01*
X119468954Y-61967040D01*
X119647351Y-62105893D01*
X119846169Y-62213488D01*
X119846172Y-62213489D01*
X120059982Y-62286890D01*
X120059984Y-62286890D01*
X120059986Y-62286891D01*
X120282967Y-62324100D01*
X120282968Y-62324100D01*
X120509032Y-62324100D01*
X120509033Y-62324100D01*
X120732014Y-62286891D01*
X120737918Y-62284863D01*
X120807714Y-62281708D01*
X120865870Y-62314461D01*
X121165197Y-62613788D01*
X121175022Y-62626051D01*
X121175243Y-62625869D01*
X121180211Y-62631874D01*
X121229222Y-62677899D01*
X121232021Y-62680612D01*
X121251522Y-62700114D01*
X121251526Y-62700117D01*
X121251529Y-62700120D01*
X121254702Y-62702581D01*
X121263574Y-62710159D01*
X121295418Y-62740062D01*
X121312976Y-62749714D01*
X121329235Y-62760395D01*
X121345064Y-62772673D01*
X121385155Y-62790021D01*
X121395626Y-62795151D01*
X121418180Y-62807550D01*
X121433902Y-62816194D01*
X121433904Y-62816195D01*
X121433908Y-62816197D01*
X121453316Y-62821180D01*
X121471719Y-62827481D01*
X121490101Y-62835436D01*
X121490102Y-62835436D01*
X121490104Y-62835437D01*
X121533250Y-62842270D01*
X121544672Y-62844636D01*
X121586981Y-62855500D01*
X121607016Y-62855500D01*
X121626414Y-62857026D01*
X121646194Y-62860159D01*
X121646195Y-62860160D01*
X121646195Y-62860159D01*
X121646196Y-62860160D01*
X121689675Y-62856050D01*
X121701344Y-62855500D01*
X140220500Y-62855500D01*
X140287539Y-62875185D01*
X140333294Y-62927989D01*
X140344500Y-62979500D01*
X140344500Y-72307255D01*
X140342775Y-72322872D01*
X140343061Y-72322899D01*
X140342326Y-72330665D01*
X140344439Y-72397872D01*
X140344500Y-72401767D01*
X140344500Y-72429357D01*
X140345003Y-72433335D01*
X140345918Y-72444967D01*
X140347290Y-72488624D01*
X140347291Y-72488627D01*
X140352880Y-72507867D01*
X140356824Y-72526911D01*
X140357511Y-72532344D01*
X140359336Y-72546792D01*
X140375414Y-72587403D01*
X140379197Y-72598452D01*
X140387403Y-72626697D01*
X140391382Y-72640390D01*
X140399015Y-72653298D01*
X140401580Y-72657634D01*
X140410138Y-72675103D01*
X140417514Y-72693732D01*
X140443181Y-72729060D01*
X140449593Y-72738821D01*
X140471828Y-72776417D01*
X140471833Y-72776424D01*
X140485990Y-72790580D01*
X140498627Y-72805375D01*
X140510406Y-72821587D01*
X140540517Y-72846497D01*
X140544057Y-72849425D01*
X140552698Y-72857288D01*
X144118181Y-76422771D01*
X144151666Y-76484094D01*
X144154500Y-76510452D01*
X144154500Y-89859547D01*
X144134815Y-89926586D01*
X144118181Y-89947228D01*
X138482228Y-95583181D01*
X138420905Y-95616666D01*
X138394547Y-95619500D01*
X138335354Y-95619500D01*
X138302897Y-95626398D01*
X138150197Y-95658855D01*
X138150192Y-95658857D01*
X137977270Y-95735848D01*
X137977265Y-95735851D01*
X137824129Y-95847111D01*
X137697466Y-95987785D01*
X137602821Y-96151715D01*
X137602818Y-96151722D01*
X137544327Y-96331740D01*
X137544326Y-96331744D01*
X137524540Y-96520000D01*
X137544326Y-96708256D01*
X137544327Y-96708259D01*
X137602818Y-96888277D01*
X137602821Y-96888284D01*
X137697467Y-97052216D01*
X137824129Y-97192888D01*
X137977265Y-97304148D01*
X137977270Y-97304151D01*
X138150192Y-97381142D01*
X138150197Y-97381144D01*
X138335354Y-97420500D01*
X138335355Y-97420500D01*
X138524644Y-97420500D01*
X138524646Y-97420500D01*
X138709803Y-97381144D01*
X138882730Y-97304151D01*
X139035871Y-97192888D01*
X139162533Y-97052216D01*
X139257179Y-96888284D01*
X139315674Y-96708256D01*
X139333321Y-96540345D01*
X139359905Y-96475732D01*
X139368952Y-96465636D01*
X145163788Y-90670801D01*
X145176042Y-90660986D01*
X145175859Y-90660764D01*
X145181868Y-90655791D01*
X145181877Y-90655786D01*
X145210109Y-90625720D01*
X145270347Y-90590327D01*
X145340161Y-90593119D01*
X145397382Y-90633211D01*
X145423845Y-90697876D01*
X145424500Y-90710605D01*
X145424500Y-92399547D01*
X145404815Y-92466586D01*
X145388181Y-92487228D01*
X138482228Y-99393181D01*
X138420905Y-99426666D01*
X138394547Y-99429500D01*
X138335354Y-99429500D01*
X138302897Y-99436398D01*
X138150197Y-99468855D01*
X138150192Y-99468857D01*
X137977270Y-99545848D01*
X137977265Y-99545851D01*
X137824129Y-99657111D01*
X137697466Y-99797785D01*
X137602821Y-99961715D01*
X137602818Y-99961722D01*
X137544327Y-100141740D01*
X137544326Y-100141744D01*
X137524540Y-100330000D01*
X137544326Y-100518256D01*
X137544327Y-100518259D01*
X137602818Y-100698277D01*
X137602821Y-100698284D01*
X137697467Y-100862216D01*
X137763095Y-100935103D01*
X137824129Y-101002888D01*
X137977265Y-101114148D01*
X137977270Y-101114151D01*
X138150192Y-101191142D01*
X138150197Y-101191144D01*
X138335354Y-101230500D01*
X138335355Y-101230500D01*
X138524644Y-101230500D01*
X138524646Y-101230500D01*
X138709803Y-101191144D01*
X138882730Y-101114151D01*
X139035871Y-101002888D01*
X139162533Y-100862216D01*
X139257179Y-100698284D01*
X139315674Y-100518256D01*
X139333321Y-100350345D01*
X139359905Y-100285732D01*
X139368952Y-100275636D01*
X146433788Y-93210801D01*
X146446042Y-93200986D01*
X146445859Y-93200764D01*
X146451868Y-93195791D01*
X146451877Y-93195786D01*
X146497949Y-93146722D01*
X146500566Y-93144023D01*
X146520120Y-93124471D01*
X146522576Y-93121303D01*
X146530156Y-93112427D01*
X146560062Y-93080582D01*
X146569713Y-93063024D01*
X146580396Y-93046761D01*
X146592673Y-93030936D01*
X146610021Y-92990844D01*
X146615151Y-92980371D01*
X146636197Y-92942092D01*
X146641180Y-92922680D01*
X146647481Y-92904280D01*
X146655437Y-92885896D01*
X146662270Y-92842748D01*
X146664633Y-92831338D01*
X146675500Y-92789019D01*
X146675500Y-92768983D01*
X146677027Y-92749582D01*
X146680160Y-92729804D01*
X146676050Y-92686324D01*
X146675500Y-92674655D01*
X146675500Y-76282742D01*
X146677224Y-76267122D01*
X146676939Y-76267096D01*
X146677671Y-76259340D01*
X146677673Y-76259333D01*
X146675561Y-76192126D01*
X146675500Y-76188231D01*
X146675500Y-76160654D01*
X146675500Y-76160650D01*
X146674996Y-76156665D01*
X146674080Y-76145021D01*
X146672709Y-76101373D01*
X146667122Y-76082144D01*
X146663174Y-76063084D01*
X146660663Y-76043204D01*
X146644588Y-76002604D01*
X146640804Y-75991552D01*
X146628618Y-75949609D01*
X146628616Y-75949606D01*
X146618423Y-75932371D01*
X146609861Y-75914894D01*
X146602487Y-75896269D01*
X146576816Y-75860937D01*
X146570405Y-75851177D01*
X146548170Y-75813580D01*
X146548168Y-75813578D01*
X146548165Y-75813574D01*
X146534006Y-75799415D01*
X146521368Y-75784619D01*
X146516466Y-75777872D01*
X146509594Y-75768413D01*
X146475940Y-75740572D01*
X146467299Y-75732709D01*
X142566419Y-71831828D01*
X142532934Y-71770505D01*
X142530100Y-71744147D01*
X142530100Y-71710169D01*
X142549785Y-71643130D01*
X142602589Y-71597375D01*
X142671747Y-71587431D01*
X142735303Y-71616456D01*
X142741781Y-71622488D01*
X147283181Y-76163888D01*
X147316666Y-76225211D01*
X147319500Y-76251569D01*
X147319500Y-111635500D01*
X147299815Y-111702539D01*
X147247011Y-111748294D01*
X147195500Y-111759500D01*
X124584500Y-111759500D01*
X124517461Y-111739815D01*
X124471706Y-111687011D01*
X124460500Y-111635500D01*
X124460500Y-109220006D01*
X125631225Y-109220006D01*
X125649892Y-109445289D01*
X125705388Y-109664439D01*
X125796198Y-109871466D01*
X125919842Y-110060716D01*
X125919850Y-110060727D01*
X126072950Y-110227036D01*
X126072954Y-110227040D01*
X126251351Y-110365893D01*
X126450169Y-110473488D01*
X126450172Y-110473489D01*
X126663982Y-110546890D01*
X126663984Y-110546890D01*
X126663986Y-110546891D01*
X126886967Y-110584100D01*
X126886968Y-110584100D01*
X127113032Y-110584100D01*
X127113033Y-110584100D01*
X127336014Y-110546891D01*
X127549831Y-110473488D01*
X127748649Y-110365893D01*
X127927046Y-110227040D01*
X128080156Y-110060719D01*
X128166193Y-109929028D01*
X128219338Y-109883675D01*
X128288569Y-109874251D01*
X128351905Y-109903753D01*
X128373804Y-109929025D01*
X128459844Y-110060719D01*
X128459849Y-110060724D01*
X128459850Y-110060727D01*
X128612950Y-110227036D01*
X128612954Y-110227040D01*
X128791351Y-110365893D01*
X128990169Y-110473488D01*
X128990172Y-110473489D01*
X129203982Y-110546890D01*
X129203984Y-110546890D01*
X129203986Y-110546891D01*
X129426967Y-110584100D01*
X129426968Y-110584100D01*
X129653032Y-110584100D01*
X129653033Y-110584100D01*
X129876014Y-110546891D01*
X130089831Y-110473488D01*
X130288649Y-110365893D01*
X130467046Y-110227040D01*
X130620156Y-110060719D01*
X130706193Y-109929028D01*
X130759338Y-109883675D01*
X130828569Y-109874251D01*
X130891905Y-109903753D01*
X130913804Y-109929025D01*
X130999844Y-110060719D01*
X130999849Y-110060724D01*
X130999850Y-110060727D01*
X131152950Y-110227036D01*
X131152954Y-110227040D01*
X131331351Y-110365893D01*
X131530169Y-110473488D01*
X131530172Y-110473489D01*
X131743982Y-110546890D01*
X131743984Y-110546890D01*
X131743986Y-110546891D01*
X131966967Y-110584100D01*
X131966968Y-110584100D01*
X132193032Y-110584100D01*
X132193033Y-110584100D01*
X132416014Y-110546891D01*
X132629831Y-110473488D01*
X132828649Y-110365893D01*
X133007046Y-110227040D01*
X133160156Y-110060719D01*
X133246193Y-109929028D01*
X133299338Y-109883675D01*
X133368569Y-109874251D01*
X133431905Y-109903753D01*
X133453804Y-109929025D01*
X133539844Y-110060719D01*
X133539849Y-110060724D01*
X133539850Y-110060727D01*
X133692950Y-110227036D01*
X133692954Y-110227040D01*
X133871351Y-110365893D01*
X134070169Y-110473488D01*
X134070172Y-110473489D01*
X134283982Y-110546890D01*
X134283984Y-110546890D01*
X134283986Y-110546891D01*
X134506967Y-110584100D01*
X134506968Y-110584100D01*
X134733032Y-110584100D01*
X134733033Y-110584100D01*
X134956014Y-110546891D01*
X135169831Y-110473488D01*
X135368649Y-110365893D01*
X135547046Y-110227040D01*
X135700156Y-110060719D01*
X135786193Y-109929028D01*
X135839338Y-109883675D01*
X135908569Y-109874251D01*
X135971905Y-109903753D01*
X135993804Y-109929025D01*
X136079844Y-110060719D01*
X136079849Y-110060724D01*
X136079850Y-110060727D01*
X136232950Y-110227036D01*
X136232954Y-110227040D01*
X136411351Y-110365893D01*
X136610169Y-110473488D01*
X136610172Y-110473489D01*
X136823982Y-110546890D01*
X136823984Y-110546890D01*
X136823986Y-110546891D01*
X137046967Y-110584100D01*
X137046968Y-110584100D01*
X137273032Y-110584100D01*
X137273033Y-110584100D01*
X137496014Y-110546891D01*
X137709831Y-110473488D01*
X137908649Y-110365893D01*
X138087046Y-110227040D01*
X138141815Y-110167545D01*
X138201699Y-110131557D01*
X138271537Y-110133657D01*
X138329153Y-110173180D01*
X138349224Y-110208196D01*
X138393046Y-110325688D01*
X138393049Y-110325693D01*
X138479209Y-110440787D01*
X138479212Y-110440790D01*
X138594306Y-110526950D01*
X138594313Y-110526954D01*
X138729020Y-110577196D01*
X138729027Y-110577198D01*
X138788555Y-110583599D01*
X138788572Y-110583600D01*
X139450000Y-110583600D01*
X139450000Y-109664297D01*
X139555408Y-109712435D01*
X139663666Y-109728000D01*
X139736334Y-109728000D01*
X139844592Y-109712435D01*
X139950000Y-109664297D01*
X139950000Y-110583600D01*
X140611428Y-110583600D01*
X140611444Y-110583599D01*
X140670972Y-110577198D01*
X140670979Y-110577196D01*
X140805686Y-110526954D01*
X140805689Y-110526952D01*
X140895688Y-110459579D01*
X140961152Y-110435161D01*
X141029426Y-110450012D01*
X141044312Y-110459579D01*
X141134310Y-110526952D01*
X141134313Y-110526954D01*
X141269020Y-110577196D01*
X141269027Y-110577198D01*
X141328555Y-110583599D01*
X141328572Y-110583600D01*
X141990000Y-110583600D01*
X141990000Y-109664297D01*
X142095408Y-109712435D01*
X142203666Y-109728000D01*
X142276334Y-109728000D01*
X142384592Y-109712435D01*
X142490000Y-109664297D01*
X142490000Y-110583600D01*
X143151428Y-110583600D01*
X143151444Y-110583599D01*
X143210972Y-110577198D01*
X143210979Y-110577196D01*
X143345686Y-110526954D01*
X143345693Y-110526950D01*
X143460787Y-110440790D01*
X143460790Y-110440787D01*
X143546950Y-110325693D01*
X143546954Y-110325686D01*
X143590775Y-110208197D01*
X143632646Y-110152263D01*
X143698110Y-110127846D01*
X143766383Y-110142698D01*
X143798186Y-110167547D01*
X143852950Y-110227036D01*
X143852954Y-110227040D01*
X144031351Y-110365893D01*
X144230169Y-110473488D01*
X144230172Y-110473489D01*
X144443982Y-110546890D01*
X144443984Y-110546890D01*
X144443986Y-110546891D01*
X144666967Y-110584100D01*
X144666968Y-110584100D01*
X144893032Y-110584100D01*
X144893033Y-110584100D01*
X145116014Y-110546891D01*
X145329831Y-110473488D01*
X145528649Y-110365893D01*
X145707046Y-110227040D01*
X145860156Y-110060719D01*
X145983802Y-109871465D01*
X146074611Y-109664441D01*
X146130107Y-109445293D01*
X146148775Y-109220000D01*
X146148775Y-109219993D01*
X146130107Y-108994710D01*
X146130107Y-108994707D01*
X146074611Y-108775559D01*
X145983802Y-108568535D01*
X145860156Y-108379281D01*
X145860153Y-108379278D01*
X145860149Y-108379272D01*
X145707049Y-108212963D01*
X145707048Y-108212962D01*
X145707046Y-108212960D01*
X145528649Y-108074107D01*
X145413575Y-108011832D01*
X145329832Y-107966512D01*
X145329827Y-107966510D01*
X145116017Y-107893109D01*
X144934388Y-107862801D01*
X144893033Y-107855900D01*
X144666967Y-107855900D01*
X144648294Y-107859016D01*
X144443982Y-107893109D01*
X144230172Y-107966510D01*
X144230167Y-107966512D01*
X144031352Y-108074106D01*
X143852955Y-108212958D01*
X143798186Y-108272453D01*
X143738298Y-108308443D01*
X143668460Y-108306342D01*
X143610845Y-108266817D01*
X143590775Y-108231802D01*
X143546954Y-108114313D01*
X143546950Y-108114306D01*
X143460790Y-107999212D01*
X143460787Y-107999209D01*
X143345693Y-107913049D01*
X143345686Y-107913045D01*
X143210979Y-107862803D01*
X143210972Y-107862801D01*
X143151444Y-107856400D01*
X142490000Y-107856400D01*
X142490000Y-108775702D01*
X142384592Y-108727565D01*
X142276334Y-108712000D01*
X142203666Y-108712000D01*
X142095408Y-108727565D01*
X141990000Y-108775702D01*
X141990000Y-107856400D01*
X141328555Y-107856400D01*
X141269027Y-107862801D01*
X141269020Y-107862803D01*
X141134313Y-107913045D01*
X141134311Y-107913047D01*
X141044311Y-107980421D01*
X140978847Y-108004838D01*
X140910574Y-107989987D01*
X140895689Y-107980421D01*
X140805688Y-107913047D01*
X140805686Y-107913045D01*
X140670979Y-107862803D01*
X140670972Y-107862801D01*
X140611444Y-107856400D01*
X139950000Y-107856400D01*
X139950000Y-108775702D01*
X139844592Y-108727565D01*
X139736334Y-108712000D01*
X139663666Y-108712000D01*
X139555408Y-108727565D01*
X139450000Y-108775702D01*
X139450000Y-107856400D01*
X138788555Y-107856400D01*
X138729027Y-107862801D01*
X138729020Y-107862803D01*
X138594313Y-107913045D01*
X138594306Y-107913049D01*
X138479212Y-107999209D01*
X138479209Y-107999212D01*
X138393049Y-108114306D01*
X138393046Y-108114312D01*
X138349224Y-108231803D01*
X138307352Y-108287736D01*
X138241887Y-108312153D01*
X138173615Y-108297301D01*
X138141813Y-108272452D01*
X138087049Y-108212963D01*
X138087048Y-108212962D01*
X138087046Y-108212960D01*
X137908649Y-108074107D01*
X137793575Y-108011832D01*
X137709832Y-107966512D01*
X137709827Y-107966510D01*
X137496017Y-107893109D01*
X137314388Y-107862801D01*
X137273033Y-107855900D01*
X137046967Y-107855900D01*
X137028294Y-107859016D01*
X136823982Y-107893109D01*
X136610177Y-107966509D01*
X136610174Y-107966510D01*
X136610169Y-107966512D01*
X136610164Y-107966514D01*
X136610161Y-107966516D01*
X136607739Y-107967827D01*
X136606635Y-107968062D01*
X136605472Y-107968573D01*
X136605367Y-107968333D01*
X136539410Y-107982421D01*
X136474039Y-107957757D01*
X136461043Y-107946452D01*
X135736771Y-107222180D01*
X135703286Y-107160857D01*
X135708270Y-107091165D01*
X135750142Y-107035232D01*
X135815606Y-107010815D01*
X135824452Y-107010499D01*
X137037871Y-107010499D01*
X137037872Y-107010499D01*
X137097483Y-107004091D01*
X137232331Y-106953796D01*
X137347546Y-106867546D01*
X137433796Y-106752331D01*
X137484091Y-106617483D01*
X137490500Y-106557873D01*
X137490499Y-104262128D01*
X137484091Y-104202517D01*
X137433796Y-104067669D01*
X137433795Y-104067668D01*
X137433793Y-104067664D01*
X137347547Y-103952455D01*
X137347544Y-103952452D01*
X137232335Y-103866206D01*
X137232328Y-103866202D01*
X137097482Y-103815908D01*
X137097483Y-103815908D01*
X137037883Y-103809501D01*
X137037881Y-103809500D01*
X137037873Y-103809500D01*
X137037864Y-103809500D01*
X134742129Y-103809500D01*
X134742123Y-103809501D01*
X134682516Y-103815908D01*
X134547671Y-103866202D01*
X134547664Y-103866206D01*
X134432455Y-103952452D01*
X134432452Y-103952455D01*
X134346206Y-104067664D01*
X134346202Y-104067671D01*
X134295908Y-104202517D01*
X134289501Y-104262116D01*
X134289501Y-104262123D01*
X134289500Y-104262135D01*
X134289500Y-105475547D01*
X134269815Y-105542586D01*
X134217011Y-105588341D01*
X134147853Y-105598285D01*
X134084297Y-105569260D01*
X134077819Y-105563228D01*
X128941819Y-100427228D01*
X128908334Y-100365905D01*
X128905500Y-100339547D01*
X128905500Y-95250000D01*
X134284551Y-95250000D01*
X134304317Y-95501151D01*
X134363126Y-95746110D01*
X134459533Y-95978859D01*
X134591160Y-96193653D01*
X134591161Y-96193656D01*
X134591164Y-96193659D01*
X134754776Y-96385224D01*
X134890466Y-96501114D01*
X134946343Y-96548838D01*
X134946346Y-96548839D01*
X135161140Y-96680466D01*
X135393889Y-96776873D01*
X135638852Y-96835683D01*
X135890000Y-96855449D01*
X136141148Y-96835683D01*
X136386111Y-96776873D01*
X136618859Y-96680466D01*
X136833659Y-96548836D01*
X137025224Y-96385224D01*
X137188836Y-96193659D01*
X137320466Y-95978859D01*
X137416873Y-95746111D01*
X137475683Y-95501148D01*
X137495449Y-95250000D01*
X137475683Y-94998852D01*
X137416873Y-94753889D01*
X137320466Y-94521141D01*
X137320466Y-94521140D01*
X137188839Y-94306346D01*
X137188838Y-94306343D01*
X137151875Y-94263066D01*
X137025224Y-94114776D01*
X136898571Y-94006604D01*
X136833656Y-93951161D01*
X136833653Y-93951160D01*
X136618859Y-93819533D01*
X136386110Y-93723126D01*
X136141151Y-93664317D01*
X135890000Y-93644551D01*
X135638848Y-93664317D01*
X135393889Y-93723126D01*
X135161140Y-93819533D01*
X134946346Y-93951160D01*
X134946343Y-93951161D01*
X134754776Y-94114776D01*
X134591161Y-94306343D01*
X134591160Y-94306346D01*
X134459533Y-94521140D01*
X134363126Y-94753889D01*
X134304317Y-94998848D01*
X134284551Y-95250000D01*
X128905500Y-95250000D01*
X128905500Y-92864499D01*
X128925185Y-92797460D01*
X128977989Y-92751705D01*
X129029500Y-92740499D01*
X129127871Y-92740499D01*
X129127872Y-92740499D01*
X129187483Y-92734091D01*
X129322331Y-92683796D01*
X129437546Y-92597546D01*
X129523796Y-92482331D01*
X129574091Y-92347483D01*
X129580500Y-92287873D01*
X129580500Y-91440001D01*
X134594532Y-91440001D01*
X134614364Y-91666686D01*
X134614366Y-91666697D01*
X134673258Y-91886488D01*
X134673261Y-91886497D01*
X134769431Y-92092732D01*
X134769432Y-92092734D01*
X134899954Y-92279141D01*
X135060858Y-92440045D01*
X135060861Y-92440047D01*
X135247266Y-92570568D01*
X135453504Y-92666739D01*
X135673308Y-92725635D01*
X135835230Y-92739801D01*
X135899998Y-92745468D01*
X135900000Y-92745468D01*
X135900002Y-92745468D01*
X135956807Y-92740498D01*
X136126692Y-92725635D01*
X136346496Y-92666739D01*
X136552734Y-92570568D01*
X136739139Y-92440047D01*
X136900047Y-92279139D01*
X137030568Y-92092734D01*
X137126739Y-91886496D01*
X137185635Y-91666692D01*
X137205468Y-91440000D01*
X137185635Y-91213308D01*
X137126739Y-90993504D01*
X137030568Y-90787266D01*
X136900047Y-90600861D01*
X136900045Y-90600858D01*
X136739141Y-90439954D01*
X136552734Y-90309432D01*
X136552732Y-90309431D01*
X136346497Y-90213261D01*
X136346488Y-90213258D01*
X136126697Y-90154366D01*
X136126693Y-90154365D01*
X136126692Y-90154365D01*
X136126691Y-90154364D01*
X136126686Y-90154364D01*
X135900002Y-90134532D01*
X135899998Y-90134532D01*
X135673313Y-90154364D01*
X135673302Y-90154366D01*
X135453511Y-90213258D01*
X135453502Y-90213261D01*
X135247267Y-90309431D01*
X135247265Y-90309432D01*
X135060858Y-90439954D01*
X134899954Y-90600858D01*
X134769432Y-90787265D01*
X134769431Y-90787267D01*
X134673261Y-90993502D01*
X134673258Y-90993511D01*
X134614366Y-91213302D01*
X134614364Y-91213313D01*
X134594532Y-91439998D01*
X134594532Y-91440001D01*
X129580500Y-91440001D01*
X129580499Y-90592128D01*
X129574091Y-90532517D01*
X129567361Y-90514474D01*
X129523797Y-90397671D01*
X129523793Y-90397664D01*
X129437547Y-90282455D01*
X129437544Y-90282452D01*
X129322335Y-90196206D01*
X129322328Y-90196202D01*
X129187482Y-90145908D01*
X129187483Y-90145908D01*
X129127883Y-90139501D01*
X129127881Y-90139500D01*
X129127873Y-90139500D01*
X129127864Y-90139500D01*
X127432129Y-90139500D01*
X127432123Y-90139501D01*
X127372516Y-90145908D01*
X127237671Y-90196202D01*
X127237664Y-90196206D01*
X127122455Y-90282452D01*
X127122452Y-90282455D01*
X127036206Y-90397664D01*
X127036202Y-90397671D01*
X126985908Y-90532517D01*
X126979501Y-90592116D01*
X126979501Y-90592123D01*
X126979500Y-90592135D01*
X126979500Y-92287870D01*
X126979501Y-92287876D01*
X126985908Y-92347483D01*
X127036202Y-92482328D01*
X127036206Y-92482335D01*
X127122452Y-92597544D01*
X127122455Y-92597547D01*
X127237664Y-92683793D01*
X127237671Y-92683797D01*
X127282618Y-92700561D01*
X127372517Y-92734091D01*
X127432127Y-92740500D01*
X127530500Y-92740499D01*
X127597538Y-92760183D01*
X127643294Y-92812986D01*
X127654500Y-92864499D01*
X127654500Y-100567255D01*
X127652775Y-100582872D01*
X127653061Y-100582899D01*
X127652326Y-100590665D01*
X127654439Y-100657872D01*
X127654500Y-100661767D01*
X127654500Y-100689357D01*
X127655003Y-100693335D01*
X127655918Y-100704967D01*
X127657290Y-100748624D01*
X127657291Y-100748627D01*
X127662880Y-100767867D01*
X127666824Y-100786911D01*
X127669336Y-100806792D01*
X127685414Y-100847403D01*
X127689197Y-100858452D01*
X127701381Y-100900388D01*
X127711580Y-100917634D01*
X127720138Y-100935103D01*
X127727514Y-100953732D01*
X127753181Y-100989060D01*
X127759593Y-100998821D01*
X127781828Y-101036417D01*
X127781833Y-101036424D01*
X127795990Y-101050580D01*
X127808628Y-101065376D01*
X127820405Y-101081586D01*
X127820406Y-101081587D01*
X127854057Y-101109425D01*
X127862698Y-101117288D01*
X134417477Y-107672068D01*
X134450962Y-107733391D01*
X134445978Y-107803083D01*
X134404106Y-107859016D01*
X134350207Y-107882058D01*
X134283981Y-107893109D01*
X134070172Y-107966510D01*
X134070167Y-107966512D01*
X133871352Y-108074106D01*
X133692955Y-108212959D01*
X133692950Y-108212963D01*
X133539850Y-108379272D01*
X133539842Y-108379283D01*
X133453808Y-108510968D01*
X133400662Y-108556325D01*
X133331430Y-108565748D01*
X133268095Y-108536246D01*
X133246192Y-108510968D01*
X133160157Y-108379283D01*
X133160149Y-108379272D01*
X133007049Y-108212963D01*
X133007048Y-108212962D01*
X133007046Y-108212960D01*
X132828649Y-108074107D01*
X132713575Y-108011832D01*
X132629832Y-107966512D01*
X132629827Y-107966510D01*
X132416017Y-107893109D01*
X132234388Y-107862801D01*
X132193033Y-107855900D01*
X131966967Y-107855900D01*
X131948294Y-107859016D01*
X131743982Y-107893109D01*
X131530172Y-107966510D01*
X131530167Y-107966512D01*
X131331352Y-108074106D01*
X131152955Y-108212959D01*
X131152950Y-108212963D01*
X130999850Y-108379272D01*
X130999842Y-108379283D01*
X130913808Y-108510968D01*
X130860662Y-108556325D01*
X130791430Y-108565748D01*
X130728095Y-108536246D01*
X130706192Y-108510968D01*
X130620157Y-108379283D01*
X130620149Y-108379272D01*
X130467049Y-108212963D01*
X130467048Y-108212962D01*
X130467046Y-108212960D01*
X130288649Y-108074107D01*
X130173575Y-108011832D01*
X130089832Y-107966512D01*
X130089827Y-107966510D01*
X129876017Y-107893109D01*
X129694388Y-107862801D01*
X129653033Y-107855900D01*
X129426967Y-107855900D01*
X129408294Y-107859016D01*
X129203982Y-107893109D01*
X128990172Y-107966510D01*
X128990167Y-107966512D01*
X128791352Y-108074106D01*
X128612955Y-108212959D01*
X128612950Y-108212963D01*
X128459850Y-108379272D01*
X128459842Y-108379283D01*
X128373808Y-108510968D01*
X128320662Y-108556325D01*
X128251430Y-108565748D01*
X128188095Y-108536246D01*
X128166192Y-108510968D01*
X128080157Y-108379283D01*
X128080149Y-108379272D01*
X127927049Y-108212963D01*
X127927048Y-108212962D01*
X127927046Y-108212960D01*
X127748649Y-108074107D01*
X127633575Y-108011832D01*
X127549832Y-107966512D01*
X127549827Y-107966510D01*
X127336017Y-107893109D01*
X127154388Y-107862801D01*
X127113033Y-107855900D01*
X126886967Y-107855900D01*
X126868294Y-107859016D01*
X126663982Y-107893109D01*
X126450172Y-107966510D01*
X126450167Y-107966512D01*
X126251352Y-108074106D01*
X126072955Y-108212959D01*
X126072950Y-108212963D01*
X125919850Y-108379272D01*
X125919842Y-108379283D01*
X125796198Y-108568533D01*
X125705388Y-108775560D01*
X125649892Y-108994710D01*
X125631225Y-109219993D01*
X125631225Y-109220006D01*
X124460500Y-109220006D01*
X124460500Y-80022326D01*
X124461591Y-80011307D01*
X124460000Y-79995063D01*
X124460000Y-78739999D01*
X120016806Y-75777870D01*
X127009500Y-75777870D01*
X127009501Y-75777876D01*
X127015908Y-75837483D01*
X127066202Y-75972328D01*
X127066206Y-75972335D01*
X127152452Y-76087544D01*
X127152455Y-76087547D01*
X127267664Y-76173793D01*
X127267671Y-76173797D01*
X127402517Y-76224091D01*
X127402516Y-76224091D01*
X127409444Y-76224835D01*
X127462127Y-76230500D01*
X129157872Y-76230499D01*
X129217483Y-76224091D01*
X129352331Y-76173796D01*
X129467546Y-76087546D01*
X129553796Y-75972331D01*
X129604091Y-75837483D01*
X129610500Y-75777873D01*
X129610499Y-75777845D01*
X129610678Y-75774547D01*
X129612183Y-75774627D01*
X129630112Y-75713326D01*
X129682868Y-75667514D01*
X129726465Y-75659981D01*
X130412046Y-74974400D01*
X130424835Y-75055148D01*
X130482359Y-75168045D01*
X130571955Y-75257641D01*
X130684852Y-75315165D01*
X130765599Y-75327953D01*
X130084526Y-76009025D01*
X130157513Y-76060132D01*
X130157521Y-76060136D01*
X130363668Y-76156264D01*
X130363682Y-76156269D01*
X130583389Y-76215139D01*
X130583400Y-76215141D01*
X130809998Y-76234966D01*
X130810002Y-76234966D01*
X131036599Y-76215141D01*
X131036610Y-76215139D01*
X131256317Y-76156269D01*
X131256331Y-76156264D01*
X131462478Y-76060136D01*
X131535471Y-76009024D01*
X130854400Y-75327953D01*
X130935148Y-75315165D01*
X131048045Y-75257641D01*
X131137641Y-75168045D01*
X131195165Y-75055148D01*
X131207953Y-74974400D01*
X131889024Y-75655471D01*
X131940136Y-75582478D01*
X132036264Y-75376331D01*
X132036269Y-75376317D01*
X132095139Y-75156610D01*
X132095141Y-75156599D01*
X132114966Y-74930002D01*
X132114966Y-74929997D01*
X132095141Y-74703400D01*
X132095139Y-74703389D01*
X132036269Y-74483682D01*
X132036264Y-74483668D01*
X131940136Y-74277521D01*
X131940132Y-74277513D01*
X131889025Y-74204526D01*
X131207953Y-74885598D01*
X131195165Y-74804852D01*
X131137641Y-74691955D01*
X131048045Y-74602359D01*
X130935148Y-74544835D01*
X130854401Y-74532046D01*
X131535472Y-73850974D01*
X131462478Y-73799863D01*
X131256331Y-73703735D01*
X131256317Y-73703730D01*
X131036610Y-73644860D01*
X131036599Y-73644858D01*
X130810002Y-73625034D01*
X130809998Y-73625034D01*
X130583400Y-73644858D01*
X130583389Y-73644860D01*
X130363682Y-73703730D01*
X130363673Y-73703734D01*
X130157516Y-73799866D01*
X130157512Y-73799868D01*
X130084526Y-73850973D01*
X130084526Y-73850974D01*
X130765599Y-74532046D01*
X130684852Y-74544835D01*
X130571955Y-74602359D01*
X130482359Y-74691955D01*
X130424835Y-74804852D01*
X130412046Y-74885598D01*
X129725799Y-74199351D01*
X129676805Y-74189505D01*
X129626622Y-74140889D01*
X129611981Y-74085366D01*
X129610900Y-74085423D01*
X129610854Y-74085429D01*
X129610853Y-74085426D01*
X129610676Y-74085436D01*
X129610499Y-74082135D01*
X129610499Y-74082128D01*
X129604091Y-74022517D01*
X129553796Y-73887669D01*
X129553795Y-73887668D01*
X129553793Y-73887664D01*
X129467547Y-73772455D01*
X129467544Y-73772452D01*
X129352335Y-73686206D01*
X129352328Y-73686202D01*
X129217482Y-73635908D01*
X129217483Y-73635908D01*
X129157883Y-73629501D01*
X129157881Y-73629500D01*
X129157873Y-73629500D01*
X129157864Y-73629500D01*
X127462129Y-73629500D01*
X127462123Y-73629501D01*
X127402516Y-73635908D01*
X127267671Y-73686202D01*
X127267664Y-73686206D01*
X127152455Y-73772452D01*
X127152452Y-73772455D01*
X127066206Y-73887664D01*
X127066202Y-73887671D01*
X127015908Y-74022517D01*
X127009501Y-74082116D01*
X127009501Y-74082123D01*
X127009500Y-74082135D01*
X127009500Y-75777870D01*
X120016806Y-75777870D01*
X116895717Y-73697144D01*
X116850856Y-73643579D01*
X116840500Y-73593970D01*
X116840500Y-72072500D01*
X120130000Y-72072500D01*
X120946314Y-72072500D01*
X120920507Y-72112656D01*
X120880000Y-72250611D01*
X120880000Y-72394389D01*
X120920507Y-72532344D01*
X120946314Y-72572500D01*
X120130001Y-72572500D01*
X120130001Y-73291088D01*
X120132794Y-73343691D01*
X120177237Y-73573487D01*
X120259879Y-73792475D01*
X120378339Y-73994341D01*
X120378344Y-73994348D01*
X120529211Y-74173286D01*
X120529213Y-74173288D01*
X120708151Y-74324155D01*
X120708158Y-74324160D01*
X120910024Y-74442620D01*
X121129012Y-74525262D01*
X121358809Y-74569705D01*
X121411382Y-74572498D01*
X121411421Y-74572499D01*
X122129999Y-74572499D01*
X122130000Y-74572498D01*
X122130000Y-72822500D01*
X122630000Y-72822500D01*
X122630000Y-74572499D01*
X123348576Y-74572499D01*
X123348588Y-74572498D01*
X123401191Y-74569705D01*
X123630987Y-74525262D01*
X123849975Y-74442620D01*
X124051841Y-74324160D01*
X124051848Y-74324155D01*
X124230786Y-74173288D01*
X124230788Y-74173286D01*
X124381655Y-73994348D01*
X124381660Y-73994341D01*
X124500120Y-73792475D01*
X124582762Y-73573487D01*
X124627205Y-73343691D01*
X124627205Y-73343690D01*
X124629998Y-73291117D01*
X124630000Y-73291078D01*
X124630000Y-72572500D01*
X123813686Y-72572500D01*
X123839493Y-72532344D01*
X123878352Y-72400001D01*
X135854532Y-72400001D01*
X135874364Y-72626686D01*
X135874366Y-72626697D01*
X135933258Y-72846488D01*
X135933261Y-72846497D01*
X136029431Y-73052732D01*
X136029432Y-73052734D01*
X136159954Y-73239141D01*
X136320858Y-73400045D01*
X136320861Y-73400047D01*
X136507266Y-73530568D01*
X136713504Y-73626739D01*
X136933308Y-73685635D01*
X137095230Y-73699801D01*
X137159998Y-73705468D01*
X137160000Y-73705468D01*
X137160002Y-73705468D01*
X137216673Y-73700509D01*
X137386692Y-73685635D01*
X137606496Y-73626739D01*
X137812734Y-73530568D01*
X137999139Y-73400047D01*
X138160047Y-73239139D01*
X138290568Y-73052734D01*
X138386739Y-72846496D01*
X138445635Y-72626692D01*
X138465468Y-72400000D01*
X138445635Y-72173308D01*
X138386739Y-71953504D01*
X138290568Y-71747266D01*
X138160047Y-71560861D01*
X138160045Y-71560858D01*
X137999141Y-71399954D01*
X137812734Y-71269432D01*
X137812732Y-71269431D01*
X137606497Y-71173261D01*
X137606488Y-71173258D01*
X137386697Y-71114366D01*
X137386693Y-71114365D01*
X137386692Y-71114365D01*
X137386691Y-71114364D01*
X137386686Y-71114364D01*
X137160002Y-71094532D01*
X137159998Y-71094532D01*
X136933313Y-71114364D01*
X136933302Y-71114366D01*
X136713511Y-71173258D01*
X136713502Y-71173261D01*
X136507267Y-71269431D01*
X136507265Y-71269432D01*
X136320858Y-71399954D01*
X136159954Y-71560858D01*
X136029432Y-71747265D01*
X136029431Y-71747267D01*
X135933261Y-71953502D01*
X135933258Y-71953511D01*
X135874366Y-72173302D01*
X135874364Y-72173313D01*
X135854532Y-72399998D01*
X135854532Y-72400001D01*
X123878352Y-72400001D01*
X123880000Y-72394389D01*
X123880000Y-72250611D01*
X123839493Y-72112656D01*
X123813686Y-72072500D01*
X124629999Y-72072500D01*
X124629999Y-71353923D01*
X124629998Y-71353911D01*
X124627205Y-71301308D01*
X124582762Y-71071512D01*
X124500120Y-70852524D01*
X124381660Y-70650658D01*
X124381655Y-70650651D01*
X124230788Y-70471713D01*
X124230786Y-70471711D01*
X124051848Y-70320844D01*
X124051841Y-70320839D01*
X123849975Y-70202379D01*
X123630984Y-70119736D01*
X123625840Y-70118741D01*
X123563760Y-70086680D01*
X123528869Y-70026146D01*
X123532244Y-69956358D01*
X123572814Y-69899473D01*
X123637697Y-69873552D01*
X123649374Y-69872999D01*
X127177872Y-69872999D01*
X127237483Y-69866591D01*
X127372331Y-69816296D01*
X127487546Y-69730046D01*
X127573796Y-69614831D01*
X127624091Y-69479983D01*
X127630500Y-69420373D01*
X127630499Y-65824628D01*
X127624091Y-65765017D01*
X127595172Y-65687482D01*
X127573797Y-65630171D01*
X127573793Y-65630164D01*
X127572076Y-65627870D01*
X135859500Y-65627870D01*
X135859501Y-65627876D01*
X135865908Y-65687483D01*
X135916202Y-65822328D01*
X135916206Y-65822335D01*
X136002452Y-65937544D01*
X136002455Y-65937547D01*
X136117664Y-66023793D01*
X136117671Y-66023797D01*
X136252517Y-66074091D01*
X136252516Y-66074091D01*
X136259444Y-66074835D01*
X136312127Y-66080500D01*
X138007872Y-66080499D01*
X138067483Y-66074091D01*
X138202331Y-66023796D01*
X138317546Y-65937546D01*
X138403796Y-65822331D01*
X138454091Y-65687483D01*
X138460500Y-65627873D01*
X138460499Y-63932128D01*
X138454091Y-63872517D01*
X138403796Y-63737669D01*
X138403795Y-63737668D01*
X138403793Y-63737664D01*
X138317547Y-63622455D01*
X138317544Y-63622452D01*
X138202335Y-63536206D01*
X138202328Y-63536202D01*
X138067482Y-63485908D01*
X138067483Y-63485908D01*
X138007883Y-63479501D01*
X138007881Y-63479500D01*
X138007873Y-63479500D01*
X138007864Y-63479500D01*
X136312129Y-63479500D01*
X136312123Y-63479501D01*
X136252516Y-63485908D01*
X136117671Y-63536202D01*
X136117664Y-63536206D01*
X136002455Y-63622452D01*
X136002452Y-63622455D01*
X135916206Y-63737664D01*
X135916202Y-63737671D01*
X135865908Y-63872517D01*
X135859501Y-63932116D01*
X135859501Y-63932123D01*
X135859500Y-63932135D01*
X135859500Y-65627870D01*
X127572076Y-65627870D01*
X127487547Y-65514955D01*
X127487544Y-65514952D01*
X127372335Y-65428706D01*
X127372328Y-65428702D01*
X127237482Y-65378408D01*
X127237483Y-65378408D01*
X127177883Y-65372001D01*
X127177881Y-65372000D01*
X127177873Y-65372000D01*
X127177864Y-65372000D01*
X123582129Y-65372000D01*
X123582123Y-65372001D01*
X123522516Y-65378408D01*
X123387671Y-65428702D01*
X123387664Y-65428706D01*
X123272455Y-65514952D01*
X123272452Y-65514955D01*
X123186206Y-65630164D01*
X123186202Y-65630171D01*
X123135908Y-65765017D01*
X123129747Y-65822328D01*
X123129501Y-65824623D01*
X123129500Y-65824635D01*
X123129500Y-69420370D01*
X123129501Y-69420376D01*
X123135908Y-69479983D01*
X123186202Y-69614828D01*
X123186206Y-69614835D01*
X123272452Y-69730044D01*
X123272455Y-69730047D01*
X123387664Y-69816293D01*
X123387673Y-69816298D01*
X123436506Y-69834511D01*
X123492440Y-69876381D01*
X123516858Y-69941845D01*
X123502007Y-70010118D01*
X123452603Y-70059524D01*
X123386598Y-70074518D01*
X123348625Y-70072501D01*
X123348579Y-70072500D01*
X122630000Y-70072500D01*
X122630000Y-71822500D01*
X122130000Y-71822500D01*
X122130000Y-70072500D01*
X121411423Y-70072500D01*
X121411411Y-70072501D01*
X121358808Y-70075294D01*
X121129012Y-70119737D01*
X120910024Y-70202379D01*
X120708158Y-70320839D01*
X120708151Y-70320844D01*
X120529213Y-70471711D01*
X120529211Y-70471713D01*
X120378344Y-70650651D01*
X120378339Y-70650658D01*
X120259879Y-70852524D01*
X120177237Y-71071512D01*
X120132794Y-71301308D01*
X120132794Y-71301309D01*
X120130001Y-71353882D01*
X120130000Y-71353921D01*
X120130000Y-72072500D01*
X116840500Y-72072500D01*
X116840500Y-67372500D01*
X117380000Y-67372500D01*
X118880000Y-67372500D01*
X118880000Y-67872500D01*
X117380001Y-67872500D01*
X117380001Y-68686697D01*
X117390400Y-68818832D01*
X117445377Y-69037019D01*
X117538428Y-69241874D01*
X117538431Y-69241880D01*
X117666559Y-69426823D01*
X117666569Y-69426835D01*
X117825664Y-69585930D01*
X117825676Y-69585940D01*
X118010619Y-69714068D01*
X118010625Y-69714071D01*
X118215480Y-69807122D01*
X118433667Y-69862099D01*
X118565810Y-69872499D01*
X119129999Y-69872499D01*
X119130000Y-69872498D01*
X119130000Y-69056186D01*
X119170156Y-69081993D01*
X119308111Y-69122500D01*
X119451889Y-69122500D01*
X119589844Y-69081993D01*
X119630000Y-69056186D01*
X119630000Y-69872499D01*
X120194182Y-69872499D01*
X120194197Y-69872498D01*
X120326332Y-69862099D01*
X120544519Y-69807122D01*
X120749374Y-69714071D01*
X120749380Y-69714068D01*
X120934323Y-69585940D01*
X120934335Y-69585930D01*
X121093430Y-69426835D01*
X121093440Y-69426823D01*
X121221568Y-69241880D01*
X121221571Y-69241874D01*
X121314622Y-69037019D01*
X121369599Y-68818832D01*
X121379999Y-68686696D01*
X121380000Y-68686684D01*
X121380000Y-67872500D01*
X119880000Y-67872500D01*
X119880000Y-67372500D01*
X121379999Y-67372500D01*
X121379999Y-66558317D01*
X121379998Y-66558302D01*
X121369599Y-66426167D01*
X121314622Y-66207980D01*
X121221571Y-66003125D01*
X121221568Y-66003119D01*
X121093440Y-65818176D01*
X121093430Y-65818164D01*
X120934335Y-65659069D01*
X120934323Y-65659059D01*
X120749380Y-65530931D01*
X120749374Y-65530928D01*
X120544519Y-65437877D01*
X120326332Y-65382900D01*
X120194196Y-65372500D01*
X119630000Y-65372500D01*
X119630000Y-66188813D01*
X119589844Y-66163007D01*
X119451889Y-66122500D01*
X119308111Y-66122500D01*
X119170156Y-66163007D01*
X119130000Y-66188813D01*
X119130000Y-65372500D01*
X118565817Y-65372500D01*
X118565802Y-65372501D01*
X118433667Y-65382900D01*
X118215480Y-65437877D01*
X118010625Y-65530928D01*
X118010619Y-65530931D01*
X117825676Y-65659059D01*
X117825664Y-65659069D01*
X117666569Y-65818164D01*
X117666559Y-65818176D01*
X117538431Y-66003119D01*
X117538428Y-66003125D01*
X117445377Y-66207980D01*
X117390400Y-66426167D01*
X117380000Y-66558303D01*
X117380000Y-67372500D01*
X116840500Y-67372500D01*
X116840500Y-62151839D01*
X116860185Y-62084800D01*
X116912989Y-62039045D01*
X116982147Y-62029101D01*
X117040659Y-62053984D01*
X117107351Y-62105893D01*
X117306169Y-62213488D01*
X117306172Y-62213489D01*
X117519982Y-62286890D01*
X117519984Y-62286890D01*
X117519986Y-62286891D01*
X117742967Y-62324100D01*
X117742968Y-62324100D01*
X117969032Y-62324100D01*
X117969033Y-62324100D01*
X118192014Y-62286891D01*
X118197919Y-62284864D01*
X118207874Y-62281446D01*
X118405831Y-62213488D01*
X118604649Y-62105893D01*
X118783046Y-61967040D01*
X118936156Y-61800719D01*
X119022193Y-61669028D01*
X119075338Y-61623675D01*
X119144569Y-61614251D01*
X119207905Y-61643753D01*
G37*
%TD.AperFunction*%
%TD*%
M02*
