%TF.GenerationSoftware,KiCad,Pcbnew,7.0.10*%
%TF.CreationDate,2024-05-14T13:40:59-04:00*%
%TF.ProjectId,Power PCB,506f7765-7220-4504-9342-2e6b69636164,rev?*%
%TF.SameCoordinates,Original*%
%TF.FileFunction,Soldermask,Top*%
%TF.FilePolarity,Negative*%
%FSLAX46Y46*%
G04 Gerber Fmt 4.6, Leading zero omitted, Abs format (unit mm)*
G04 Created by KiCad (PCBNEW 7.0.10) date 2024-05-14 13:40:59*
%MOMM*%
%LPD*%
G01*
G04 APERTURE LIST*
G04 Aperture macros list*
%AMRoundRect*
0 Rectangle with rounded corners*
0 $1 Rounding radius*
0 $2 $3 $4 $5 $6 $7 $8 $9 X,Y pos of 4 corners*
0 Add a 4 corners polygon primitive as box body*
4,1,4,$2,$3,$4,$5,$6,$7,$8,$9,$2,$3,0*
0 Add four circle primitives for the rounded corners*
1,1,$1+$1,$2,$3*
1,1,$1+$1,$4,$5*
1,1,$1+$1,$6,$7*
1,1,$1+$1,$8,$9*
0 Add four rect primitives between the rounded corners*
20,1,$1+$1,$2,$3,$4,$5,0*
20,1,$1+$1,$4,$5,$6,$7,0*
20,1,$1+$1,$6,$7,$8,$9,0*
20,1,$1+$1,$8,$9,$2,$3,0*%
G04 Aperture macros list end*
%ADD10RoundRect,0.250000X0.312500X0.625000X-0.312500X0.625000X-0.312500X-0.625000X0.312500X-0.625000X0*%
%ADD11C,3.200000*%
%ADD12O,1.727200X1.727200*%
%ADD13R,1.727200X1.727200*%
%ADD14R,1.600000X1.600000*%
%ADD15O,1.600000X1.600000*%
%ADD16RoundRect,0.250000X-0.850000X-0.350000X0.850000X-0.350000X0.850000X0.350000X-0.850000X0.350000X0*%
%ADD17RoundRect,0.249997X-2.950003X-2.650003X2.950003X-2.650003X2.950003X2.650003X-2.950003X2.650003X0*%
%ADD18RoundRect,0.150000X0.150000X-0.825000X0.150000X0.825000X-0.150000X0.825000X-0.150000X-0.825000X0*%
%ADD19RoundRect,0.250000X-0.325000X-0.650000X0.325000X-0.650000X0.325000X0.650000X-0.325000X0.650000X0*%
%ADD20RoundRect,0.250000X0.625000X-0.375000X0.625000X0.375000X-0.625000X0.375000X-0.625000X-0.375000X0*%
%ADD21R,3.500000X3.500000*%
%ADD22RoundRect,0.750000X-0.750000X-1.000000X0.750000X-1.000000X0.750000X1.000000X-0.750000X1.000000X0*%
%ADD23RoundRect,0.875000X-0.875000X-0.875000X0.875000X-0.875000X0.875000X0.875000X-0.875000X0.875000X0*%
%ADD24RoundRect,0.250000X-0.400000X-0.625000X0.400000X-0.625000X0.400000X0.625000X-0.400000X0.625000X0*%
%ADD25C,1.600000*%
%ADD26RoundRect,0.250000X-0.312500X-0.625000X0.312500X-0.625000X0.312500X0.625000X-0.312500X0.625000X0*%
%ADD27R,2.200000X2.200000*%
%ADD28O,2.200000X2.200000*%
G04 APERTURE END LIST*
D10*
%TO.C,R3*%
X143702500Y-100330000D03*
X140777500Y-100330000D03*
%TD*%
D11*
%TO.C,XA1*%
X113030000Y-109220000D03*
X114300000Y-60960000D03*
X165100000Y-76200000D03*
X165100000Y-104140000D03*
X189230000Y-60960000D03*
X195580000Y-109220000D03*
D12*
X134620000Y-109220000D03*
X137160000Y-109220000D03*
X165227000Y-81280000D03*
X193040000Y-60960000D03*
X195580000Y-60960000D03*
X149860000Y-109220000D03*
X152400000Y-109220000D03*
X154940000Y-109220000D03*
X157480000Y-109220000D03*
X160020000Y-109220000D03*
X162560000Y-109220000D03*
X165100000Y-109220000D03*
X167640000Y-109220000D03*
X172720000Y-109220000D03*
X175260000Y-109220000D03*
X177800000Y-109220000D03*
X180340000Y-109220000D03*
X182880000Y-109220000D03*
X185420000Y-109220000D03*
X187960000Y-109220000D03*
X190500000Y-109220000D03*
X122936000Y-60960000D03*
X162560000Y-60960000D03*
X160020000Y-60960000D03*
X157480000Y-60960000D03*
X154940000Y-60960000D03*
X152400000Y-60960000D03*
X149860000Y-60960000D03*
X147320000Y-60960000D03*
X144780000Y-60960000D03*
X140716000Y-60960000D03*
X138176000Y-60960000D03*
X135636000Y-60960000D03*
X133096000Y-60960000D03*
X130556000Y-60960000D03*
X128016000Y-60960000D03*
X167640000Y-60960000D03*
X170180000Y-60960000D03*
X172720000Y-60960000D03*
X175260000Y-60960000D03*
X177800000Y-60960000D03*
X180340000Y-60960000D03*
X182880000Y-60960000D03*
X185420000Y-60960000D03*
X193040000Y-63500000D03*
X195580000Y-63500000D03*
X193040000Y-66040000D03*
X195580000Y-66040000D03*
X193040000Y-68580000D03*
X195580000Y-68580000D03*
X193040000Y-71120000D03*
X195580000Y-71120000D03*
X193040000Y-73660000D03*
X195580000Y-73660000D03*
X193040000Y-76200000D03*
X195580000Y-76200000D03*
X193040000Y-78740000D03*
X195580000Y-78740000D03*
X193040000Y-81280000D03*
X195580000Y-81280000D03*
X193040000Y-83820000D03*
X195580000Y-83820000D03*
X193040000Y-86360000D03*
X195580000Y-86360000D03*
X193040000Y-88900000D03*
X195580000Y-88900000D03*
X193040000Y-91440000D03*
X195580000Y-91440000D03*
X193040000Y-93980000D03*
X195580000Y-93980000D03*
X193040000Y-96520000D03*
X195580000Y-96520000D03*
X193040000Y-99060000D03*
X195580000Y-99060000D03*
X193040000Y-101600000D03*
X195580000Y-101600000D03*
D13*
X125476000Y-60960000D03*
X139700000Y-109220000D03*
X142240000Y-109220000D03*
X165227000Y-86360000D03*
X193040000Y-104140000D03*
X195580000Y-104140000D03*
D12*
X129540000Y-109220000D03*
X162687000Y-81280000D03*
X165227000Y-83820000D03*
X132080000Y-109220000D03*
X162687000Y-86360000D03*
X162687000Y-83820000D03*
X117856000Y-60960000D03*
X120396000Y-60960000D03*
X127000000Y-109220000D03*
X144780000Y-109220000D03*
%TD*%
D10*
%TO.C,R4*%
X143702500Y-96520000D03*
X140777500Y-96520000D03*
%TD*%
D14*
%TO.C,SW1*%
X128280000Y-91440000D03*
D15*
X135900000Y-91440000D03*
%TD*%
D16*
%TO.C,U1*%
X127000000Y-80525000D03*
D17*
X133300000Y-82805000D03*
D16*
X127000000Y-85085000D03*
%TD*%
D18*
%TO.C,U2*%
X140335000Y-91375000D03*
X141605000Y-91375000D03*
X142875000Y-91375000D03*
X144145000Y-91375000D03*
X144145000Y-86425000D03*
X142875000Y-86425000D03*
X141605000Y-86425000D03*
X140335000Y-86425000D03*
%TD*%
D19*
%TO.C,C1*%
X139290000Y-81280000D03*
X142240000Y-81280000D03*
%TD*%
%TO.C,C3*%
X127000000Y-99060000D03*
X129950000Y-99060000D03*
%TD*%
D20*
%TO.C,D1*%
X130810000Y-69980000D03*
X130810000Y-67180000D03*
%TD*%
D21*
%TO.C,J1*%
X125380000Y-67622500D03*
D22*
X119380000Y-67622500D03*
D23*
X122380000Y-72322500D03*
%TD*%
D14*
%TO.C,SW2*%
X137160000Y-64780000D03*
D15*
X137160000Y-72400000D03*
%TD*%
D24*
%TO.C,R2*%
X127000000Y-104140000D03*
X130100000Y-104140000D03*
%TD*%
D14*
%TO.C,C2*%
X128310000Y-74930000D03*
D25*
X130810000Y-74930000D03*
%TD*%
D26*
%TO.C,R1*%
X139315000Y-76200000D03*
X142240000Y-76200000D03*
%TD*%
D27*
%TO.C,D2*%
X135890000Y-105410000D03*
D28*
X135890000Y-95250000D03*
%TD*%
M02*
