M48
; DRILL file {KiCad 7.0.10} date Tue May 14 13:41:38 2024
; FORMAT={-:-/ absolute / inch / decimal}
; #@! TF.CreationDate,2024-05-14T13:41:38-04:00
; #@! TF.GenerationSoftware,Kicad,Pcbnew,7.0.10
; #@! TF.FileFunction,Plated,1,2,PTH
FMAT,2
INCH
; #@! TA.AperFunction,Plated,PTH,ViaDrill
T1C0.0157
; #@! TA.AperFunction,Plated,PTH,ComponentDrill
T2C0.0315
; #@! TA.AperFunction,Plated,PTH,ComponentDrill
T3C0.0394
; #@! TA.AperFunction,Plated,PTH,ComponentDrill
T4C0.0400
; #@! TA.AperFunction,Plated,PTH,ComponentDrill
T5C0.0433
%
G90
G05
T1
X4.9Y-3.0
X4.95Y-3.5
X4.95Y-3.8
X5.15Y-2.5
X5.2Y-3.8
X5.2Y-4.2
X5.3Y-3.0
X5.45Y-3.8
X5.45Y-3.95
X5.55Y-4.15
T2
X5.0504Y-3.6
X5.0516Y-2.95
X5.15Y-2.95
X5.3504Y-3.6
X5.4Y-2.5504
X5.4Y-2.8504
T4
X4.64Y-2.4
X4.74Y-2.4
X4.84Y-2.4
X4.94Y-2.4
X5.0Y-4.3
X5.04Y-2.4
X5.1Y-4.3
X5.14Y-2.4
X5.2Y-4.3
X5.24Y-2.4
X5.3Y-4.3
X5.34Y-2.4
X5.4Y-4.3
X5.44Y-2.4
X5.5Y-4.3
X5.54Y-2.4
X5.6Y-4.3
X5.7Y-2.4
X5.7Y-4.3
X5.8Y-2.4
X5.9Y-2.4
X5.9Y-4.3
X6.0Y-2.4
X6.0Y-4.3
X6.1Y-2.4
X6.1Y-4.3
X6.2Y-2.4
X6.2Y-4.3
X6.3Y-2.4
X6.3Y-4.3
X6.4Y-2.4
X6.4Y-4.3
X6.405Y-3.2
X6.405Y-3.3
X6.405Y-3.4
X6.5Y-4.3
X6.505Y-3.2
X6.505Y-3.3
X6.505Y-3.4
X6.6Y-2.4
X6.6Y-4.3
X6.7Y-2.4
X6.8Y-2.4
X6.8Y-4.3
X6.9Y-2.4
X6.9Y-4.3
X7.0Y-2.4
X7.0Y-4.3
X7.1Y-2.4
X7.1Y-4.3
X7.2Y-2.4
X7.2Y-4.3
X7.3Y-2.4
X7.3Y-4.3
X7.4Y-4.3
X7.5Y-4.3
X7.6Y-2.4
X7.6Y-2.5
X7.6Y-2.6
X7.6Y-2.7
X7.6Y-2.8
X7.6Y-2.9
X7.6Y-3.0
X7.6Y-3.1
X7.6Y-3.2
X7.6Y-3.3
X7.6Y-3.4
X7.6Y-3.5
X7.6Y-3.6
X7.6Y-3.7
X7.6Y-3.8
X7.6Y-3.9
X7.6Y-4.0
X7.6Y-4.1
X7.7Y-2.4
X7.7Y-2.5
X7.7Y-2.6
X7.7Y-2.7
X7.7Y-2.8
X7.7Y-2.9
X7.7Y-3.0
X7.7Y-3.1
X7.7Y-3.2
X7.7Y-3.3
X7.7Y-3.4
X7.7Y-3.5
X7.7Y-3.6
X7.7Y-3.7
X7.7Y-3.8
X7.7Y-3.9
X7.7Y-4.0
X7.7Y-4.1
T5
X5.35Y-3.75
X5.35Y-4.15
T3
G00X4.7Y-2.6229
M15
G01X4.7Y-2.7017
M16
G05
G00X4.7787Y-2.8473
M15
G01X4.8575Y-2.8473
M16
G05
G00X4.9362Y-2.6229
M15
G01X4.9362Y-2.7017
M16
G05
M30
